<?xml version="1.0" encoding="utf-8"?>
<!-- Generator: Adobe Illustrator 25.0.0, SVG Export Plug-In . SVG Version: 6.00 Build 0)  -->
<svg version="1.1" id="Layer_1" xmlns="http://www.w3.org/2000/svg" xmlns:xlink="http://www.w3.org/1999/xlink" x="0px" y="0px"
	 viewBox="0 0 714.25 225.54" style="enable-background:new 0 0 714.25 225.54;" xml:space="preserve">
<style type="text/css">
	.st0{fill:#FFBC13;}
	.st1{fill:#383838;}
</style>
<g>
	<g>
		<path class="st0" d="M579.97,176.09L579.97,176.09c-0.32-1.67-0.64-3.34-1.04-5c-0.08-0.89-0.86-1.55-1.75-1.47
			c-0.04,0-0.08,0.01-0.12,0.02c-0.78-0.01-1.57,0.01-2.35,0.08c-2.66,0.23-5.32,0.62-7.99,0.68c-3.5,0.21-7.02,0.07-10.49-0.43
			c-3.88-0.58-7.36-2.7-9.64-5.9c-1.92-2.83-3.38-5.94-4.33-9.22c-0.95-3.08-1.75-6.2-2.39-9.36c-0.08-1.16-1.09-2.04-2.26-1.96
			c-0.01,0-0.03,0-0.04,0h-0.01c-2.17,0.04-4.34-0.16-6.51-0.23c-3.29-0.1-3.13,1.42-3.48,4.48c-0.34,2.94-0.34,5.9-0.01,8.84
			c1.16,10.45,6.48,21.39,16.38,26.04c4.91,2.15,10.21,3.31,15.57,3.41c5.44,0.2,10.89,0,16.31-0.59c1.2-0.04,2.39-0.18,3.56-0.41
			c1.64-0.43,2.03-1.08,1.73-2.74C580.72,180.26,580.36,178.17,579.97,176.09z"/>
		<path class="st0" d="M686.33,189.29c-0.97-2.01-2.55-3.65-4.52-4.69c-2.53-1.3-5.45-1.63-8.2-0.94c-2.6,0.52-4.98,1.85-6.77,3.8
			c-3.1,3.19-4.18,7.85-2.78,12.07c0.81,2.83,2.82,5.17,5.5,6.4c3.03,1.54,6.52,1.91,9.81,1.04c5.05-1.26,8.8-5.55,8.62-10.15
			C688.04,194.22,687.48,191.63,686.33,189.29L686.33,189.29z"/>
		<path class="st0" d="M714.22,125.52L714.22,125.52c-0.03-0.28-0.05-0.58-0.09-0.87c-1.19-9.35-10.08-14.75-18.15-17.81
			c-2.28-0.87-4.6-1.64-6.94-2.32c-4.67-1.59-9.42-2.93-14.23-4c-5.15-1.19-10.35-2.18-15.65-2.96c0.01-0.38,0.25-0.72,0.6-0.85
			c1.42-0.86,2.84-1.72,4.28-2.56c5.54-3.23,10.97-6.62,16.26-10.25c3.63-2.47,7.02-5.26,10.15-8.34
			c8.01-7.96,14.56-19.71,8.08-29.14c-0.92-1.32-2-2.51-3.23-3.55c-28.01-27.56-88.55-12.32-88.55-12.32
			c-0.63,0.09-1.22,0.35-1.7,0.76l0.24,1.42c0.38,2.18,0.79,4.35,1.17,6.53c0.55,3.18,1.08,6.35,1.63,9.53
			c0.13,0.74,0.26,1.48,0.39,2.22c0.53,0.19,1.11,0.2,1.64,0.03c1.48-0.33,2.96-0.69,4.44-1.04c4.08-0.95,8.22-1.64,12.34-2.4
			c1.81-0.33,3.63-0.63,5.46-0.83c2.24-0.24,4.48-0.55,6.74-0.73c5-0.56,10.03-0.74,15.05-0.55c2.99,0.22,5.98,0.41,8.95,0.91
			c3.43,0.51,6.72,1.72,9.66,3.56c3.25,1.87,4.72,5.78,3.5,9.32c-0.95,2.76-2.48,5.28-4.49,7.38c-3.04,3.29-6.45,6.22-10.17,8.73
			c-3.12,2.12-6.35,4.08-9.68,5.86c-3.3,1.83-6.71,3.47-10.18,4.98c-4.75,2.06-9.53,3.99-14.41,5.7c-3.09,1.08-6.21,2.07-9.31,3.14
			c-1.21,0.41-1.55,0.71-1.57,1.66c0.07,0.44,0.14,0.87,0.21,1.31c0.41,2.45,0.81,4.91,1.25,7.35c0.61,3.39,1.21,6.78,1.75,10.18
			c0.51,0.19,1.05,0.23,1.58,0.12c3.88-0.55,7.77-1.03,11.67-1.45c4.22-0.45,8.46-0.68,12.69-0.87c5.26-0.19,10.53-0.06,15.77,0.39
			c4.78,0.31,9.52,1.09,14.15,2.32c3.88,0.87,7.54,2.56,10.72,4.96c2.93,1.89,4,5.66,2.48,8.81c-1.16,2.31-2.77,4.38-4.72,6.07
			c-2.18,1.99-4.56,3.75-7.11,5.25c-4.27,2.57-8.72,4.83-13.31,6.77c-5,2.17-10.1,4.06-15.26,5.82c-4.63,1.57-9.29,3.03-14,4.36
			c-1.73,0.49-3.47,0.96-5.19,1.46c-0.92,0.27-1.41,0.58-1.64,1.16c0.31,1.75,0.61,3.5,0.91,5.25c0.7,4.04,1.39,8.08,2.08,12.12
			c0.02,0.09,0.03,0.17,0.05,0.26c0.41,0.06,0.82,0.05,1.22-0.03c1.59-0.31,3.21-0.22,4.82-0.44c15.35-2.39,30.15-7.52,43.69-15.16
			c1.44-0.78,2.86-1.58,4.27-2.4c2.45-1.43,4.85-2.95,7.2-4.57c2.52-1.7,4.95-3.53,7.29-5.48c1.68-1.44,3.29-2.95,4.87-4.51
			c1.1-1.1,2.14-2.26,3.1-3.47c0.02-0.02,0.04-0.05,0.06-0.07c0.91-1.1,1.78-2.22,2.61-3.39
			C712.47,134.83,714.57,130.51,714.22,125.52z"/>
		<path class="st0" d="M609.75,217.46l-0.01,0.01c-0.65-3.81-1.28-7.63-1.93-11.44c-0.67-3.95-1.34-7.9-2.03-11.85
			c-0.52-3.04-1.05-6.08-1.59-9.12c-0.4-2.31-0.82-4.63-1.22-6.94c-0.7-4.04-1.38-8.08-2.08-12.12c-0.67-3.86-1.35-7.71-2.01-11.57
			c-0.52-3-1-6-1.52-8.99c-0.52-3-1.06-5.99-1.58-8.98c-0.69-4-1.37-7.99-2.07-11.99c-0.5-2.86-1.06-5.7-1.51-8.57
			c-0.55-3.5-1.17-7-1.79-10.49c-0.44-2.45-0.84-4.9-1.25-7.35c-0.33-2-0.57-4.02-1.01-5.99c-0.61-2.7-0.9-5.45-1.44-8.16
			c-0.6-3.03-1.07-6.08-1.6-9.12c-0.51-2.95-1.02-5.9-1.53-8.85c-0.44-2.54-0.85-5.08-1.29-7.62c-0.55-3.18-1.13-6.35-1.68-9.53
			c-0.55-3.18-1.08-6.35-1.63-9.53c-0.38-2.18-0.8-4.35-1.17-6.53c-0.57-3.31-1.1-6.63-1.69-9.94c-0.53-2.95-1.1-5.89-1.54-8.84
			c-0.66-4.28-1.59-8.51-2.15-12.81c-0.13-0.98-0.33-1.11-1.39-1.12c-1.34-0.01-2.68,0-4.02,0c-2.73,0-5.45-0.02-8.18,0
			c-1.21,0.01-1.24,0.06-1.15,1.29c0.08,1.15,0.21,2.29,0.37,3.43c0.52,3.74,1.06,7.48,1.61,11.22c0.66,4.46,1.34,8.92,2.03,13.38
			c0.5,3.23,1.05,6.45,1.57,9.68c0.67,4.19,1.31,8.37,1.98,12.56c0.44,2.72,0.9,5.45,1.35,8.17c0.53,3.18,1.05,6.36,1.58,9.54
			c0.56,3.36,1.14,6.72,1.71,10.07c0.43,2.59,0.85,5.18,1.28,7.77c0.39,2.32,0.81,4.63,1.19,6.95c0.52,3.23,1,6.46,1.52,9.68
			c0.42,2.59,0.9,5.17,1.32,7.76c0.56,3.46,1.1,6.92,1.63,10.38c0.56,3.55,1.11,7.1,1.69,10.65c0.44,2.73,0.91,5.45,1.36,8.18
			c0.44,2.68,0.84,5.37,1.28,8.05c0.65,4,1.34,8,1.98,12c0.63,3.91,1.19,7.83,1.83,11.74c0.4,2.5,0.9,4.99,1.31,7.49
			c0.68,4.13,1.31,8.28,1.99,12.41c0.8,4.86,1.62,9.72,2.46,14.57c1,5.81,2.03,11.62,3.05,17.43c0.18,1.08,0.18,1.11,1.32,1.12
			c2.45,0.02,4.9,0,7.35,0s4.9,0.01,7.35,0c1.21,0,1.35-0.2,1.13-1.41C610.56,221.9,610.14,219.68,609.75,217.46z"/>
		<path class="st0" d="M631.32,217.46l-0.01,0.01c-0.65-3.81-1.28-7.63-1.93-11.44c-0.67-3.95-1.34-7.9-2.03-11.85
			c-0.52-3.04-1.05-6.08-1.58-9.12c-0.41-2.31-0.82-4.63-1.22-6.94c-0.7-4.04-1.38-8.08-2.08-12.12c-0.67-3.86-1.35-7.71-2.01-11.57
			c-0.52-2.99-1-6-1.52-8.99c-0.52-3-1.06-5.99-1.58-8.98c-0.69-4-1.37-7.99-2.07-11.99c-0.5-2.86-1.06-5.7-1.51-8.57
			c-0.55-3.5-1.17-7-1.79-10.49c-0.44-2.45-0.84-4.9-1.25-7.35c-0.34-2-0.57-4.02-1.01-5.99c-0.61-2.7-0.9-5.45-1.44-8.16
			c-0.6-3.03-1.08-6.08-1.6-9.12c-0.51-2.95-1.02-5.9-1.53-8.85c-0.43-2.54-0.85-5.08-1.29-7.62c-0.55-3.18-1.13-6.35-1.68-9.52
			c-0.55-3.17-1.08-6.36-1.63-9.53c-0.38-2.18-0.8-4.35-1.17-6.52c-0.57-3.31-1.1-6.63-1.69-9.94c-0.53-2.94-1.1-5.89-1.54-8.84
			c-0.66-4.28-1.59-8.51-2.15-12.81c-0.13-0.98-0.33-1.11-1.39-1.12c-1.34-0.01-2.68,0-4.02,0h-1.04c-2.37,0-4.76-0.01-7.14,0
			c-1.21,0.01-1.24,0.06-1.15,1.29c0.08,1.15,0.21,2.29,0.37,3.43c0.52,3.74,1.06,7.48,1.61,11.22c0.66,4.46,1.34,8.92,2.03,13.38
			c0.5,3.23,1.06,6.46,1.57,9.68c0.67,4.18,1.31,8.37,1.98,12.56c0.44,2.73,0.9,5.45,1.35,8.17c0.53,3.18,1.04,6.36,1.58,9.54
			c0.56,3.36,1.14,6.71,1.71,10.07c0.43,2.59,0.84,5.18,1.28,7.77c0.39,2.32,0.81,4.63,1.19,6.95c0.52,3.23,1,6.46,1.52,9.68
			c0.42,2.59,0.9,5.17,1.32,7.76c0.56,3.46,1.1,6.92,1.63,10.38c0.56,3.55,1.12,7.1,1.69,10.65c0.44,2.73,0.91,5.45,1.36,8.18
			c0.43,2.68,0.84,5.37,1.28,8.05c0.65,4,1.34,8,1.98,12c0.63,3.91,1.19,7.83,1.83,11.74c0.41,2.5,0.91,4.99,1.32,7.49
			c0.68,4.14,1.31,8.28,1.99,12.41c0.8,4.86,1.62,9.72,2.46,14.58c1,5.81,2.03,11.62,3.05,17.43c0.18,1.08,0.18,1.11,1.32,1.12
			c2.45,0.02,4.9,0,7.35,0h2.04c1.35,0,2.69,0,4.04,0c0.42,0,0.84,0,1.26,0c1.21,0,1.35-0.2,1.13-1.41
			C632.12,221.9,631.7,219.68,631.32,217.46z"/>
	</g>
	<g>
		<g>
			<path class="st1" d="M36.46,72.02c-1.95-1.72-4.43-3.06-7.44-4.02c-3.01-0.96-6.56-1.44-10.67-1.44H6.25v11.11h9.43
				c4.17,0,7.37,0.88,9.62,2.63c2.25,1.75,3.37,4.32,3.37,7.69v2.58c0,3.44-0.76,5.84-2.28,7.19c-1.52,1.36-3.9,2.03-7.14,2.03H0
				v11.11h24.51c6.48,0,11.06-1.47,13.74-4.41c2.68-2.94,4.02-7.72,4.02-14.34v-6.55c0-2.71-0.48-5.22-1.44-7.54
				C39.87,75.76,38.41,73.74,36.46,72.02z"/>
			<path class="st1" d="M153.88,118.75c-2.12,0-3.84,0.66-5.16,1.98c-1.32,1.32-1.98,3.01-1.98,5.06c0,2.12,0.66,3.84,1.98,5.16
				c1.32,1.32,3.04,1.98,5.16,1.98c2.05,0,3.72-0.66,5.01-1.98c1.29-1.32,1.93-3.04,1.93-5.16c0-2.05-0.64-3.74-1.93-5.06
				C157.6,119.41,155.93,118.75,153.88,118.75z"/>
			<path class="st1" d="M199.32,90.67c0,1.59-0.13,2.94-0.4,4.07c-0.26,1.13-0.76,2.07-1.49,2.83c-0.73,0.76-1.77,1.32-3.13,1.69
				c-1.36,0.36-3.06,0.54-5.11,0.54c-1.85,0-3.59-0.4-5.21-1.19c-1.62-0.79-2.86-1.85-3.72-3.18c0.33-1.85,0.5-3.74,0.5-5.66
				c0-3.37-0.48-6.51-1.44-9.43c-0.96-2.91-2.55-5.47-4.76-7.69c-2.22-2.21-5.06-3.92-8.53-5.11c-3.47-1.19-7.62-1.79-12.45-1.79
				c-2.05,0-4.5,0.22-7.34,0.64c-2.84,0.43-5.75,1.21-8.73,2.33l2.88,10.12c1.98-0.66,3.95-1.12,5.9-1.39
				c1.95-0.26,3.59-0.4,4.91-0.4c5.29,0,9.23,1.03,11.81,3.08c2.58,2.05,3.87,5.06,3.87,9.03c0,1.59-0.13,3.01-0.4,4.27
				c-0.27,1.26-0.79,2.37-1.59,3.32c-0.79,0.96-2,1.7-3.62,2.23c-1.62,0.53-3.72,0.79-6.3,0.79h-20.44h-14.68h0h-14.68h0h-7.14V87.4
				c0-3.57-0.59-6.71-1.79-9.43c-1.19-2.71-2.81-4.96-4.86-6.75c-2.05-1.79-4.4-3.14-7.04-4.07c-2.65-0.92-5.46-1.39-8.43-1.39
				c-3.97,0-7.46,0.66-10.47,1.98c-3.01,1.32-5.51,3.13-7.49,5.41c-1.98,2.28-3.46,4.88-4.42,7.79c-0.96,2.91-1.44,5.92-1.44,9.03
				c0,3.57,0.56,6.7,1.69,9.38c1.12,2.68,2.69,4.86,4.71,6.55c2.02,1.69,4.4,2.94,7.14,3.77c2.74,0.83,5.77,1.24,9.08,1.24h9.52
				c0,1.39-0.27,2.51-0.79,3.37c-0.53,0.86-1.32,1.52-2.38,1.98c-1.06,0.46-2.37,0.78-3.92,0.94c-1.55,0.16-3.32,0.25-5.31,0.25
				c-1.92,0-3.74-0.13-5.46-0.4c-1.72-0.27-3.34-0.56-4.86-0.89l-1.98,10.52c1.92,0.46,4.02,0.84,6.3,1.14
				c2.28,0.3,4.42,0.45,6.4,0.45c3.57,0,6.83-0.3,9.77-0.89c2.94-0.6,5.52-1.59,7.74-2.98c2.22-1.39,4-3.19,5.36-5.41
				c1.36-2.22,2.23-4.91,2.63-8.09h8.73h0.5h14.19h0h14.68c0.05,0,0.09-0.02,0.13-0.03c0.12,0.01,0.24,0.03,0.36,0.03h23.51
				c7.14,0,12.6-2.18,16.37-6.55c0.99,1.39,2.13,2.52,3.42,3.37c1.29,0.86,2.61,1.52,3.97,1.98c1.35,0.46,2.66,0.78,3.92,0.94
				c1.26,0.17,2.41,0.25,3.47,0.25c4.17,0,7.64-0.36,10.42-1.09c2.78-0.73,5.01-1.84,6.7-3.32c1.69-1.49,2.89-3.34,3.62-5.56
				c0.73-2.22,1.09-4.85,1.09-7.89V37.99h-13.49V90.67z M84.33,99.8h-7.74c-3.37,0-5.97-0.91-7.79-2.73
				c-1.82-1.82-2.73-4.61-2.73-8.38c0-2.05,0.28-3.82,0.84-5.31c0.56-1.49,1.29-2.69,2.18-3.62c0.89-0.93,1.93-1.6,3.13-2.04
				c1.19-0.43,2.38-0.64,3.57-0.64c1.45,0,2.74,0.3,3.87,0.89c1.12,0.6,2.03,1.44,2.73,2.53c0.7,1.09,1.19,2.3,1.49,3.62
				c0.3,1.32,0.45,2.74,0.45,4.27V99.8z"/>
			<rect x="226.01" y="37.99" class="st1" width="13.59" height="72.92"/>
			<path class="st1" d="M307.56,56.94c2.05,0,3.72-0.66,5.01-1.98c1.29-1.32,1.93-3.04,1.93-5.16c0-2.05-0.64-3.74-1.93-5.06
				c-1.29-1.32-2.96-1.98-5.01-1.98c-2.12,0-3.84,0.66-5.16,1.98c-1.32,1.32-1.98,3.01-1.98,5.06c0,2.12,0.66,3.84,1.98,5.16
				C303.72,56.28,305.44,56.94,307.56,56.94z"/>
			<path class="st1" d="M290,56.94c2.05,0,3.72-0.66,5.01-1.98c1.29-1.32,1.93-3.04,1.93-5.16c0-2.05-0.64-3.74-1.93-5.06
				c-1.29-1.32-2.96-1.98-5.01-1.98c-2.12,0-3.84,0.66-5.16,1.98c-1.32,1.32-1.98,3.01-1.98,5.06c0,2.12,0.66,3.84,1.98,5.16
				C286.16,56.28,287.88,56.94,290,56.94z"/>
			<path class="st1" d="M374.98,71.97c-1.82-1.69-4.15-3.01-6.99-3.97c-2.84-0.96-6.22-1.44-10.12-1.44h-7.94l19.25-20.04
				l-9.23-8.53l-26.99,28.57v11.11h21.53c8.14,0,12.2,3.44,12.2,10.32v2.58c0,3.24-0.71,5.59-2.13,7.05
				c-1.42,1.45-3.85,2.18-7.29,2.18H328.1h0h-0.79c-2.71,0-4.6-0.51-5.66-1.54c-1.06-1.03-1.59-3.06-1.59-6.1v-25.6h-21.43
				c-3.37,0-6.52,0.46-9.42,1.39c-2.91,0.93-5.44,2.31-7.59,4.17c-2.15,1.85-3.82,4.15-5.01,6.9c-1.19,2.75-1.79,5.94-1.79,9.57
				c0,3.51,0.63,6.5,1.89,8.98c1.26,2.48,2.91,4.45,4.96,5.9c2.05,1.46,4.38,2.5,6.99,3.13c2.61,0.63,5.27,0.94,7.99,0.94
				c2.98,0,5.59-0.31,7.84-0.94c2.25-0.63,4.03-1.24,5.36-1.84c1.39,2.32,3.46,3.92,6.2,4.81c2.74,0.89,6.4,1.34,10.96,1.34h2.88h0
				h32.64c6.42,0,10.98-1.45,13.69-4.37c2.71-2.91,4.07-7.71,4.07-14.39v-6.55c0-2.71-0.43-5.24-1.29-7.59
				C378.13,75.68,376.79,73.66,374.98,71.97z M306.47,94.54c-1.32,0.53-2.56,0.93-3.72,1.19c-1.16,0.26-2.76,0.4-4.81,0.4
				c-1.13,0-2.27-0.11-3.42-0.35c-1.16-0.23-2.2-0.68-3.13-1.34c-0.93-0.66-1.69-1.54-2.28-2.63c-0.59-1.09-0.89-2.53-0.89-4.32
				c0-3.31,0.91-5.79,2.73-7.44c1.82-1.65,4.38-2.48,7.69-2.48h7.84V94.54z"/>
			<path class="st1" d="M464.72,49.8c0,2.12,0.66,3.84,1.98,5.16c1.32,1.32,3.04,1.98,5.16,1.98c2.05,0,3.72-0.66,5.01-1.98
				c1.29-1.32,1.93-3.04,1.93-5.16c0-2.05-0.64-3.74-1.93-5.06c-1.29-1.32-2.96-1.98-5.01-1.98c-2.12,0-3.84,0.66-5.16,1.98
				C465.38,46.06,464.72,47.75,464.72,49.8z"/>
			<path class="st1" d="M463.03,41.46c2.05,0,3.72-0.66,5.01-1.98c1.29-1.32,1.93-3.04,1.93-5.16c0-2.05-0.64-3.74-1.93-5.06
				c-1.29-1.32-2.96-1.98-5.01-1.98c-2.12,0-3.84,0.66-5.16,1.98c-1.32,1.32-1.98,3.01-1.98,5.06c0,2.12,0.66,3.84,1.98,5.16
				C459.19,40.8,460.91,41.46,463.03,41.46z"/>
			<path class="st1" d="M454.3,56.94c2.05,0,3.72-0.66,5.01-1.98c1.29-1.32,1.93-3.04,1.93-5.16c0-2.05-0.64-3.74-1.93-5.06
				c-1.29-1.32-2.96-1.98-5.01-1.98c-2.12,0-3.84,0.66-5.16,1.98c-1.32,1.32-1.98,3.01-1.98,5.06c0,2.12,0.66,3.84,1.98,5.16
				C450.46,56.28,452.18,56.94,454.3,56.94z"/>
			<path class="st1" d="M483.67,66.56v24.11c0,3.71-0.48,6.15-1.44,7.34c-0.96,1.19-2.66,1.79-5.11,1.79
				c-1.52,0-2.76-0.21-3.72-0.64c-0.96-0.43-1.7-1.01-2.23-1.74c-0.53-0.73-0.89-1.57-1.09-2.53c-0.2-0.96-0.3-1.97-0.3-3.03V75.2
				h-13.49v15.48c0,3.64-0.48,6.07-1.44,7.29c-0.96,1.22-2.66,1.83-5.11,1.83c-1.52,0-2.78-0.21-3.77-0.64
				c-0.99-0.43-1.74-1.01-2.23-1.74c-0.5-0.73-0.84-1.57-1.04-2.53c-0.2-0.96-0.3-1.97-0.3-3.03V75.2H428.9v15.48
				c0,3.51-0.81,5.9-2.43,7.19c-1.62,1.29-4.32,1.93-8.09,1.93h-8.33V66.56h-13.59v41.08c0,3.24-0.55,5.59-1.64,7.04
				c-1.09,1.45-2.9,2.18-5.41,2.18c-0.73,0-1.46-0.05-2.18-0.15c-0.73-0.1-1.49-0.22-2.28-0.35l-1.69,10.62
				c1.06,0.33,2.41,0.63,4.07,0.89c1.65,0.26,3.47,0.4,5.46,0.4c2.12,0,4.18-0.23,6.2-0.69c2.02-0.46,3.84-1.34,5.46-2.63
				c1.62-1.29,2.93-3.06,3.92-5.31c0.99-2.25,1.55-5.16,1.69-8.73h10.12c5.03,0,9.08-0.51,12.15-1.54c3.08-1.02,5.44-2.59,7.09-4.71
				c1.12,1.98,2.91,3.52,5.36,4.61c2.45,1.09,5.32,1.64,8.63,1.64c6.02,0,10.52-2.05,13.49-6.15c1.06,1.92,2.81,3.42,5.26,4.51
				c2.45,1.09,5.32,1.64,8.63,1.64c5.22,0,9.26-1.49,12.1-4.47c2.84-2.98,4.27-7.18,4.27-12.6V66.56H483.67z"/>
		</g>
		<g>
			<path class="st0" d="M7.66,162.78c0.84,0,1.51-0.27,2.03-0.82c0.52-0.55,0.77-1.24,0.77-2.08c0-0.84-0.26-1.52-0.77-2.06
				c-0.52-0.53-1.19-0.8-2.03-0.8c-0.84,0-1.53,0.27-2.08,0.8c-0.55,0.53-0.82,1.22-0.82,2.06c0,0.84,0.27,1.53,0.82,2.08
				C6.13,162.51,6.82,162.78,7.66,162.78z"/>
			<path class="st0" d="M14.96,162.78c0.84,0,1.51-0.27,2.03-0.82c0.52-0.55,0.77-1.24,0.77-2.08c0-0.84-0.26-1.52-0.77-2.06
				c-0.52-0.53-1.19-0.8-2.03-0.8c-0.84,0-1.53,0.27-2.08,0.8c-0.55,0.53-0.82,1.22-0.82,2.06c0,0.84,0.27,1.53,0.82,2.08
				C13.43,162.51,14.12,162.78,14.96,162.78z"/>
			<path class="st0" d="M38.26,192.51c-0.84,0-1.53,0.27-2.08,0.8c-0.55,0.53-0.82,1.22-0.82,2.05c0,0.84,0.27,1.53,0.82,2.08
				c0.55,0.55,1.24,0.82,2.08,0.82c0.84,0,1.51-0.27,2.03-0.82c0.52-0.55,0.77-1.24,0.77-2.08c0-0.84-0.26-1.52-0.77-2.05
				C39.77,192.78,39.1,192.51,38.26,192.51z"/>
			<path class="st0" d="M30.96,192.51c-0.84,0-1.53,0.27-2.08,0.8c-0.55,0.53-0.82,1.22-0.82,2.05c0,0.84,0.27,1.53,0.82,2.08
				c0.55,0.55,1.24,0.82,2.08,0.82c0.84,0,1.51-0.27,2.03-0.82c0.52-0.55,0.77-1.24,0.77-2.08c0-0.84-0.26-1.52-0.77-2.05
				C32.48,192.78,31.8,192.51,30.96,192.51z"/>
			<path class="st0" d="M48.22,179.17c0,1.8-0.4,3.11-1.21,3.91c-0.81,0.81-2.22,1.21-4.25,1.21c-1.71,0-3.03-0.41-3.96-1.23
				c-0.93-0.82-1.4-1.96-1.4-3.41v-12.18h-5.27v10.1c0,1.1-0.07,2.06-0.22,2.9c-0.15,0.84-0.44,1.54-0.89,2.1
				c-0.45,0.56-1.1,0.99-1.96,1.28c-0.85,0.29-2.01,0.43-3.46,0.43h-0.39c-1.58,0-2.7-0.25-3.36-0.75c-0.66-0.5-0.99-1.49-0.99-2.97
				v-13.1h-9.62c-1.64,0-3.13,0.22-4.47,0.65c-1.34,0.44-2.51,1.1-3.53,1.98c-1.02,0.89-1.79,1.97-2.32,3.24s-0.8,2.73-0.8,4.37
				c0,1.74,0.3,3.2,0.89,4.38c0.6,1.18,1.37,2.13,2.32,2.85c0.95,0.73,2.03,1.24,3.24,1.55c1.21,0.31,2.44,0.46,3.7,0.46
				c1.48,0,2.76-0.15,3.84-0.43c1.08-0.29,1.94-0.6,2.59-0.92c0.71,1.22,1.8,2.03,3.26,2.42c1.47,0.39,3.17,0.58,5.1,0.58h1.3
				c0,0,0,0,0,0c2.42,0,4.41-0.27,5.97-0.8c1.56-0.53,2.75-1.38,3.55-2.54c0.39,0.61,0.87,1.13,1.45,1.55
				c0.58,0.42,1.22,0.77,1.91,1.04c0.69,0.28,1.41,0.47,2.15,0.58c0.71,0.11,1.4,0.16,2.05,0.17c0.01,0,0.02,0,0.03,0
				c0.01,0,0.02,0,0.03,0c0,0,0.01,0,0.01,0c0,0,0,0,0,0c3.42,0.02,5.93-0.65,7.54-2.03c1.61-1.39,2.42-3.54,2.42-6.48v-27.02h-5.27
				V179.17z M15.54,181.49c-0.74,0.35-1.43,0.61-2.08,0.77c-0.65,0.16-1.55,0.24-2.71,0.24c-0.55,0-1.14-0.06-1.79-0.19
				c-0.65-0.13-1.23-0.38-1.76-0.75c-0.53-0.37-0.98-0.88-1.33-1.52c-0.36-0.64-0.53-1.5-0.53-2.56c0-1.13,0.16-2.05,0.48-2.78
				c0.32-0.73,0.76-1.31,1.31-1.74c0.55-0.43,1.2-0.74,1.96-0.92c0.76-0.18,1.55-0.27,2.39-0.27h4.06V181.49z"/>
			<path class="st0" d="M106.7,179.17c0,1.8-0.4,3.11-1.21,3.91c-0.81,0.81-2.22,1.21-4.25,1.21c-1.16,0-2.19-0.24-3.09-0.73
				c-0.9-0.48-1.48-1.24-1.74-2.27c0.13-0.55,0.23-1.1,0.29-1.64c0.06-0.55,0.1-1.14,0.1-1.79c0-1.42-0.2-2.78-0.6-4.08
				c-0.4-1.31-1.03-2.45-1.88-3.43c-0.85-0.98-1.94-1.76-3.26-2.34c-1.32-0.58-2.92-0.87-4.79-0.87c-3.29,0.06-5.83,1.22-7.64,3.48
				c-1.8,2.26-2.87,5.33-3.19,9.23c-0.1,1.42-0.42,2.51-0.97,3.26c-0.55,0.76-1.39,1.15-2.51,1.18h-1.26
				c-0.58,0-1.14-0.06-1.69-0.19c-0.55-0.13-1.04-0.35-1.47-0.68c-0.43-0.32-0.78-0.79-1.04-1.4c-0.26-0.61-0.39-1.34-0.39-2.17
				v-26.78h-5.27v28.13c0,1.45,0.28,2.67,0.85,3.65c0.56,0.98,1.33,1.75,2.3,2.3c0.97,0.55,2.09,0.93,3.36,1.14
				c1.25,0.21,2.61,0.31,4.06,0.31c0.01,0,0.01,0,0.02,0h1.69c1.48,0,2.65-0.23,3.5-0.68c0.85-0.45,1.57-1.18,2.15-2.18
				c1.42,1.19,2.77,2,4.06,2.42c1.29,0.42,2.59,0.63,3.92,0.63c1.58,0,3.05-0.31,4.42-0.92c1.37-0.61,2.52-1.53,3.46-2.75
				c0.42,0.71,0.92,1.29,1.5,1.74c0.58,0.45,1.19,0.81,1.84,1.06c0.64,0.26,1.32,0.43,2.03,0.53c0.66,0.09,1.29,0.13,1.9,0.14
				c0.03,0,0.05,0.01,0.08,0.01c0.01,0,0.03,0,0.04,0c0,0,0.01,0,0.01,0c0,0,0,0,0,0c3.42,0.02,5.93-0.65,7.54-2.03
				c1.61-1.39,2.42-3.54,2.42-6.48v-27.02h-5.27V179.17z M91.21,180.38c-0.18,0.74-0.46,1.4-0.85,1.98
				c-0.39,0.58-0.89,1.06-1.52,1.43c-0.63,0.37-1.39,0.56-2.3,0.56c-1.26,0-2.38-0.26-3.36-0.8c-0.98-0.53-1.96-1.25-2.92-2.15
				c0.19-3,0.81-5.37,1.84-7.11c1.03-1.74,2.45-2.63,4.25-2.66c1.55,0,2.79,0.52,3.72,1.57c0.93,1.05,1.4,2.7,1.4,4.95
				C91.48,178.9,91.39,179.64,91.21,180.38z"/>
			<rect x="119.32" y="153.07" class="st0" width="5.27" height="35.53"/>
			<path class="st0" d="M158.08,165.64c0.84,0,1.51-0.27,2.03-0.82c0.52-0.55,0.77-1.24,0.77-2.08c0-0.84-0.26-1.52-0.77-2.05
				c-0.52-0.53-1.19-0.8-2.03-0.8c-0.84,0-1.53,0.27-2.08,0.8c-0.55,0.53-0.82,1.22-0.82,2.05c0,0.84,0.27,1.53,0.82,2.08
				C156.55,165.36,157.25,165.64,158.08,165.64z"/>
			<path class="st0" d="M165.38,165.64c0.84,0,1.51-0.27,2.03-0.82c0.52-0.55,0.77-1.24,0.77-2.08c0-0.84-0.26-1.52-0.77-2.05
				c-0.52-0.53-1.19-0.8-2.03-0.8c-0.84,0-1.53,0.27-2.08,0.8c-0.55,0.53-0.82,1.22-0.82,2.05c0,0.84,0.27,1.53,0.82,2.08
				C163.85,165.36,164.54,165.64,165.38,165.64z"/>
			<path class="st0" d="M175.92,178.49c0,1.1-0.08,2.01-0.24,2.75c-0.16,0.74-0.45,1.34-0.87,1.79c-0.42,0.45-0.97,0.77-1.64,0.97
				c-0.68,0.19-1.53,0.29-2.56,0.29h-15.95c-2.16,0-3.85-0.44-5.08-1.33c-1.22-0.89-1.85-2.28-1.88-4.18c0-0.64,0.07-1.42,0.22-2.32
				c0.14-0.9,0.43-2,0.85-3.29l-4.64-1.4c-0.58,1.35-1,2.72-1.26,4.11c-0.26,1.39-0.39,2.61-0.39,3.67c0,1.61,0.28,2.99,0.85,4.13
				c0.56,1.14,1.34,2.08,2.32,2.8c0.98,0.73,2.14,1.26,3.48,1.59c1.34,0.34,2.78,0.51,4.33,0.51h19.09c3.03,0,5.23-0.68,6.6-2.05
				c1.37-1.37,2.05-3.46,2.05-6.26v-12.81h-5.27V178.49z"/>
			<path class="st0" d="M206.66,178.35c0.03,2.19-0.35,3.73-1.14,4.62c-0.79,0.89-2.2,1.33-4.23,1.33h-15.03v4.3h16.77
				c3.09,0,5.35-0.68,6.77-2.03c1.42-1.35,2.13-3.5,2.13-6.43v-27.02h-5.27V178.35z"/>
			<rect x="193.27" y="158.48" class="st0" width="5.27" height="23.54"/>
			<rect x="219.18" y="153.07" class="st0" width="5.27" height="35.53"/>
			<path class="st0" d="M286.66,179.17c0,1.8-0.4,3.11-1.21,3.91c-0.81,0.81-2.22,1.21-4.25,1.21c-0.84,0-1.69-0.23-2.56-0.7
				c-0.87-0.47-1.48-1.14-1.84-2.01c0.19-0.97,0.29-2.09,0.29-3.38c0-1.68-0.25-3.2-0.75-4.57c-0.5-1.37-1.27-2.54-2.3-3.5
				c-1.03-0.97-2.36-1.71-3.99-2.22c-1.63-0.51-3.52-0.77-5.68-0.77c-0.84,0-1.89,0.09-3.17,0.27c-1.27,0.18-2.63,0.54-4.08,1.09
				l1.11,3.96c1.06-0.35,1.97-0.58,2.71-0.68c0.74-0.1,1.6-0.16,2.56-0.19c2.87,0,4.94,0.55,6.21,1.64c1.27,1.1,1.91,2.69,1.91,4.79
				c0,1.1-0.08,2.04-0.24,2.83c-0.16,0.79-0.47,1.44-0.92,1.96c-0.45,0.52-1.08,0.89-1.88,1.14c-0.81,0.24-1.87,0.36-3.19,0.36
				h-10.05h-3.63v-7.15c0-1.58-0.25-3-0.75-4.25c-0.5-1.26-1.19-2.3-2.08-3.14c-0.89-0.84-1.94-1.48-3.17-1.93
				c-1.22-0.45-2.58-0.68-4.06-0.68c-1.74,0-3.29,0.31-4.66,0.92s-2.52,1.43-3.46,2.47c-0.93,1.03-1.64,2.24-2.13,3.63
				c-0.48,1.39-0.73,2.87-0.73,4.45c0,1.48,0.23,2.84,0.68,4.06c0.45,1.22,1.14,2.28,2.08,3.17c0.93,0.89,2.14,1.57,3.63,2.05
				c1.48,0.48,3.25,0.73,5.32,0.73h3.96c-0.06,1.61-0.6,2.73-1.62,3.36c-1.02,0.63-2.49,0.94-4.42,0.94c-0.94,0-1.85-0.08-2.76-0.24
				c-0.9-0.16-1.72-0.32-2.47-0.48l-0.77,4.11c0.93,0.23,1.96,0.41,3.07,0.56c1.11,0.15,2.15,0.22,3.12,0.22
				c6.73,0,10.44-2.82,11.12-8.46h4.45h0.05h10.92c1.93,0,3.57-0.25,4.91-0.75c1.34-0.5,2.41-1.3,3.21-2.39
				c0.42,0.61,0.91,1.12,1.48,1.52c0.56,0.4,1.16,0.73,1.79,0.97c0.63,0.24,1.25,0.41,1.86,0.51c0.54,0.09,1.03,0.12,1.49,0.13
				c0.05,0,0.09,0.02,0.15,0.02c0.01,0,0.03,0,0.04,0c0,0,0.01,0,0.01,0c0,0,0,0,0,0c3.42,0.02,5.93-0.65,7.54-2.03
				c1.61-1.39,2.42-3.54,2.42-6.48v-27.02h-5.27V179.17z M246.39,184.29h-3.38c-1.03,0-1.97-0.1-2.8-0.29
				c-0.84-0.19-1.55-0.52-2.15-0.99c-0.6-0.47-1.06-1.1-1.4-1.89s-0.51-1.78-0.51-2.97c0-1.32,0.17-2.4,0.51-3.24
				c0.34-0.84,0.77-1.51,1.31-2.01c0.53-0.5,1.11-0.84,1.74-1.04c0.63-0.19,1.22-0.29,1.76-0.29c0.9,0,1.67,0.17,2.3,0.51
				c0.63,0.34,1.14,0.8,1.52,1.38c0.39,0.58,0.67,1.27,0.85,2.08c0.18,0.81,0.27,1.66,0.27,2.56V184.29z"/>
			<rect x="299.27" y="153.07" class="st0" width="5.27" height="35.53"/>
			<path class="st0" d="M328.97,169.74c-0.89-0.84-1.95-1.48-3.19-1.93c-1.24-0.45-2.59-0.68-4.04-0.68c-1.74,0-3.29,0.31-4.64,0.92
				c-1.35,0.61-2.51,1.43-3.46,2.47c-0.95,1.03-1.67,2.24-2.15,3.63c-0.48,1.39-0.72,2.87-0.72,4.45c0,3.13,0.97,5.57,2.9,7.35
				c1.93,1.77,4.59,2.66,7.98,2.66c1.13,0,2.05-0.07,2.78-0.22c0.73-0.15,1.39-0.33,2.01-0.56c0,1.8-0.52,3.1-1.57,3.89
				c-1.05,0.79-2.54,1.18-4.47,1.18c-0.93,0-1.85-0.08-2.75-0.24c-0.9-0.16-1.72-0.32-2.47-0.48l-0.77,4.11
				c0.93,0.23,1.96,0.41,3.07,0.56c1.11,0.15,2.15,0.22,3.12,0.22c3.8,0,6.62-0.88,8.46-2.64c1.84-1.76,2.76-4.36,2.76-7.81v-9.47
				c0-1.58-0.25-3-0.75-4.25C330.55,171.63,329.86,170.58,328.97,169.74z M326.49,183.47c-0.48,0.19-1.05,0.38-1.69,0.56
				c-0.65,0.18-1.47,0.27-2.47,0.27c-0.77,0-1.52-0.1-2.25-0.29c-0.73-0.19-1.37-0.52-1.93-0.99c-0.56-0.47-1.02-1.1-1.38-1.91
				c-0.35-0.81-0.53-1.79-0.53-2.95c0-1.35,0.19-2.46,0.56-3.31c0.37-0.85,0.82-1.51,1.35-1.98c0.53-0.47,1.1-0.8,1.72-0.99
				c0.61-0.19,1.18-0.29,1.69-0.29c0.93,0,1.72,0.17,2.34,0.51c0.63,0.34,1.14,0.8,1.52,1.38c0.39,0.58,0.66,1.27,0.82,2.08
				c0.16,0.81,0.24,1.66,0.24,2.56V183.47z"/>
			<path class="st0" d="M356.74,162.78c0.84,0,1.51-0.27,2.03-0.82c0.51-0.55,0.77-1.24,0.77-2.08c0-0.84-0.26-1.52-0.77-2.06
				c-0.52-0.53-1.19-0.8-2.03-0.8c-0.84,0-1.53,0.27-2.08,0.8c-0.55,0.53-0.82,1.22-0.82,2.06c0,0.84,0.27,1.53,0.82,2.08
				C355.21,162.51,355.91,162.78,356.74,162.78z"/>
			<path class="st0" d="M364.04,162.78c0.84,0,1.51-0.27,2.03-0.82c0.52-0.55,0.77-1.24,0.77-2.08c0-0.84-0.26-1.52-0.77-2.06
				c-0.52-0.53-1.19-0.8-2.03-0.8c-0.84,0-1.53,0.27-2.08,0.8c-0.55,0.53-0.82,1.22-0.82,2.06c0,0.84,0.27,1.53,0.82,2.08
				C362.51,162.51,363.21,162.78,364.04,162.78z"/>
			<path class="st0" d="M396.45,169.55c-0.95-0.84-2.07-1.45-3.36-1.84c-1.29-0.39-2.71-0.58-4.25-0.58c-3.25,0-5.86,0.95-7.81,2.85
				c-1.95,1.9-2.92,4.53-2.92,7.88c0,1.16,0.18,2.34,0.53,3.55c0.35,1.21,0.82,2.17,1.4,2.88h-5.37h-0.39
				c-1.58,0-2.7-0.25-3.36-0.75c-0.66-0.5-0.99-1.49-0.99-2.97v-13.1h-9.62c-1.64,0-3.13,0.22-4.47,0.65
				c-1.34,0.44-2.51,1.1-3.53,1.98c-1.01,0.89-1.79,1.97-2.32,3.24c-0.53,1.27-0.8,2.73-0.8,4.37c0,1.74,0.3,3.2,0.89,4.38
				c0.6,1.18,1.37,2.13,2.32,2.85c0.95,0.73,2.03,1.24,3.24,1.55c1.21,0.31,2.44,0.46,3.7,0.46c1.48,0,2.76-0.15,3.84-0.43
				c1.08-0.29,1.94-0.6,2.59-0.92c0.71,1.22,1.8,2.03,3.26,2.42c1.47,0.39,3.16,0.58,5.1,0.58h1.26h0.05h14.21
				c3.51,0,6.02-0.85,7.52-2.54c1.5-1.69,2.25-4.45,2.25-8.29c0-1.93-0.26-3.58-0.77-4.93C398.14,171.48,397.4,170.39,396.45,169.55
				z M364.62,181.49c-0.74,0.35-1.43,0.61-2.08,0.77c-0.64,0.16-1.55,0.24-2.71,0.24c-0.55,0-1.14-0.06-1.79-0.19
				c-0.65-0.13-1.23-0.38-1.76-0.75c-0.53-0.37-0.97-0.88-1.33-1.52c-0.35-0.64-0.53-1.5-0.53-2.56c0-1.13,0.16-2.05,0.48-2.78
				c0.32-0.73,0.76-1.31,1.3-1.74s1.2-0.74,1.96-0.92c0.76-0.18,1.55-0.27,2.39-0.27h4.06V181.49z M392.85,182.72
				c-0.77,1.05-2.13,1.57-4.06,1.57c-1.77,0-3.09-0.52-3.96-1.57c-0.87-1.05-1.31-2.75-1.31-5.1c0-2.06,0.5-3.64,1.5-4.74
				c1-1.1,2.27-1.64,3.82-1.64c1.64,0,2.92,0.52,3.82,1.57c0.9,1.05,1.35,2.71,1.35,5C394.01,180.04,393.62,181.67,392.85,182.72z"
				/>
			<path class="st0" d="M388.84,162.78c0.84,0,1.51-0.27,2.03-0.82c0.52-0.55,0.77-1.24,0.77-2.08c0-0.84-0.26-1.52-0.77-2.06
				c-0.52-0.53-1.19-0.8-2.03-0.8c-0.84,0-1.53,0.27-2.08,0.8c-0.55,0.53-0.82,1.22-0.82,2.06c0,0.84,0.27,1.53,0.82,2.08
				C387.31,162.51,388,162.78,388.84,162.78z"/>
			<rect x="405.66" y="153.07" class="st0" width="5.27" height="35.53"/>
			<path class="st0" d="M491.89,153.07v26.1c0,1.8-0.4,3.11-1.21,3.91c-0.81,0.81-2.22,1.21-4.25,1.21c-1.71,0-3.02-0.41-3.94-1.23
				c-0.92-0.82-1.38-1.96-1.38-3.41v-26.59h-5.27v26.1c0,1.77-0.39,3.06-1.16,3.87c-0.77,0.81-2.21,1.22-4.3,1.26
				c-1.39,0-2.5-0.39-3.33-1.16c-0.84-0.77-1.26-1.82-1.26-3.14v-1.84c0-1.48-0.22-2.89-0.65-4.23c-0.43-1.34-1.14-2.51-2.13-3.5
				c-0.98-1-2.26-1.8-3.84-2.39c-1.58-0.6-3.51-0.89-5.8-0.89c-1.93,0-3.98,0.28-6.14,0.85c-2.16,0.56-4.51,1.49-7.06,2.78v-3.29
				h-5.27v16.82h-4.78h0h-4.35v-16.82h-5.27v19.87c0,1.84-0.3,3.17-0.89,4.01c-0.6,0.84-1.6,1.26-3.02,1.26
				c-0.65,0-1.37-0.08-2.18-0.24l-0.68,4.25c0.45,0.13,1.01,0.23,1.69,0.32c0.68,0.08,1.37,0.12,2.08,0.12
				c1.16,0,2.22-0.14,3.19-0.41c0.97-0.27,1.82-0.75,2.56-1.43c0.74-0.68,1.33-1.57,1.76-2.68c0.44-1.11,0.68-2.42,0.75-3.94h4.98
				h0.15h25.91c1.9,0,3.48-0.27,4.74-0.8c1.26-0.53,2.22-1.31,2.9-2.34c0.74,1.06,1.7,1.85,2.88,2.37c1.18,0.52,2.44,0.77,3.8,0.77
				c2.22,0,4.03-0.25,5.41-0.75c1.39-0.5,2.48-1.31,3.29-2.44c0.39,0.58,0.86,1.08,1.43,1.5c0.56,0.42,1.17,0.75,1.81,0.99
				c0.64,0.24,1.33,0.42,2.05,0.53c0.7,0.11,1.37,0.16,2.03,0.17c0.01,0,0.02,0,0.03,0c0.01,0,0.02,0,0.03,0c0,0,0.01,0,0.01,0
				c0,0,0,0,0,0c3.42,0.02,5.93-0.65,7.54-2.03c1.61-1.39,2.42-3.54,2.42-6.48v-27.02H491.89z M460.25,181.32
				c-0.15,0.66-0.4,1.21-0.77,1.64c-0.37,0.43-0.88,0.77-1.52,0.99c-0.65,0.23-1.45,0.34-2.42,0.34h-15.37v-8.94
				c1.93-1.16,3.92-2.07,5.97-2.73c2.05-0.66,4.16-1.01,6.36-1.04c1.39,0,2.59,0.19,3.6,0.56c1.01,0.37,1.84,0.89,2.49,1.55
				c0.64,0.66,1.12,1.45,1.43,2.37c0.31,0.92,0.46,1.93,0.46,3.02C460.47,179.91,460.4,180.66,460.25,181.32z"/>
		</g>
	</g>
</g>
</svg>
