<svg xmlns="http://www.w3.org/2000/svg" xmlns:xlink="http://www.w3.org/1999/xlink" version="1.1" width="278.416pt" height="98.0712pt" viewBox="0 0 278.416 98.0712">
<defs>
<clipPath id="clip_0">
<path transform="matrix(1,0,0,-1,0,98.0712)" d="M0 98.071H278.416V0H0Z"/>
</clipPath>
</defs>
<g id="layer_1" data-name="">
<g clip-path="url(#clip_0)">
<path transform="matrix(1,0,0,-1,91.3604,62.055299)" d="M0 0C-.061 .322-.124 .644-.2 .962-.25 1.172-.346 1.239-.559 1.242-.71 1.243-.861 1.239-1.012 1.226-1.524 1.182-2.035 1.107-2.547 1.094-3.22 1.077-3.894 1.057-4.565 1.176-5.335 1.313-5.957 1.672-6.418 2.31-6.807 2.849-7.048 3.457-7.25 4.083-7.441 4.673-7.58 5.276-7.71 5.882-7.764 6.137-7.901 6.262-8.151 6.258-8.152 6.258-8.153 6.258-8.154 6.258-8.572 6.251-8.988 6.29-9.406 6.302-10.039 6.321-10.007 6.03-10.076 5.441-10.141 4.877-10.141 4.306-10.078 3.742-9.854 1.732-8.832-.371-6.929-1.265-5.986-1.707-4.97-1.872-3.936-1.92-2.888-1.969-1.843-1.911-.801-1.807-.573-1.784-.339-1.786-.116-1.727 .199-1.644 .274-1.521 .216-1.203 .144-.802 .076-.4 0 0" fill="#c49a6c"/>
<path transform="matrix(1,0,0,-1,111.8064,64.5917)" d="M0 0C-.2 .391-.478 .699-.869 .902-1.372 1.162-1.897 1.204-2.446 1.083-2.957 .971-3.413 .729-3.748 .352-4.337-.309-4.553-1.085-4.282-1.969-4.107-2.543-3.752-2.942-3.226-3.2-2.624-3.496-2.003-3.566-1.341-3.401-.37-3.159 .351-2.334 .317-1.449 .307-.846 .211-.412 0 0" fill="#c49a6c"/>
<path transform="matrix(1,0,0,-1,117.1676,52.3336)" d="M0 0C-.004 .056-.01 .113-.017 .17-.245 1.968-1.954 3.005-3.507 3.594-3.945 3.761-4.389 3.908-4.839 4.039-5.734 4.353-6.652 4.594-7.576 4.808-8.566 5.037-9.567 5.227-10.585 5.376-10.58 5.482-10.52 5.509-10.469 5.54-10.195 5.705-9.922 5.87-9.647 6.031-8.582 6.652-7.537 7.305-6.52 8.002-5.824 8.48-5.17 9.009-4.569 9.606-3.029 11.136-1.769 13.395-3.015 15.207-3.016 15.207-3.016 15.208-3.017 15.209-3.179 15.445-3.385 15.673-3.637 15.891-9.022 21.189-20.661 18.259-20.661 18.259-20.82 18.221-20.924 18.18-20.988 18.114-20.973 18.023-20.957 17.932-20.942 17.841-20.87 17.423-20.789 17.005-20.716 16.587-20.61 15.976-20.509 15.365-20.403 14.754-20.378 14.612-20.353 14.469-20.328 14.327-20.248 14.292-20.146 14.291-20.014 14.321-19.729 14.385-19.445 14.454-19.161 14.52-18.376 14.703-17.581 14.837-16.789 14.982-16.441 15.047-16.09 15.104-15.738 15.142-15.307 15.189-14.877 15.248-14.443 15.28-13.48 15.353-12.521 15.456-11.55 15.385-10.975 15.342-10.401 15.306-9.831 15.211-9.168 15.1-8.542 14.894-7.974 14.526-7.338 14.114-7.074 13.46-7.3 12.733-7.471 12.184-7.79 11.732-8.164 11.314-8.74 10.668-9.411 10.132-10.119 9.636-10.714 9.219-11.345 8.861-11.978 8.51-12.612 8.158-13.268 7.842-13.936 7.552-14.847 7.156-15.768 6.785-16.706 6.456-17.3 6.248-17.9 6.057-18.496 5.853-18.728 5.773-18.794 5.718-18.798 5.534-18.785 5.45-18.772 5.366-18.758 5.282-18.679 4.811-18.603 4.339-18.519 3.868-18.402 3.217-18.287 2.565-18.183 1.911-18.106 1.876-18.006 1.87-17.879 1.888-17.133 1.993-16.386 2.086-15.636 2.166-14.824 2.253-14.011 2.297-13.197 2.334-12.186 2.38-11.175 2.338-10.165 2.259-9.244 2.187-8.333 2.063-7.444 1.814-6.709 1.608-5.987 1.361-5.384 .86-4.99 .533-4.745 .129-4.778-.341-4.788-.498-4.83-.662-4.907-.833-5.117-1.299-5.455-1.657-5.815-1.998-6.228-2.39-6.699-2.711-7.182-3.007-8-3.508-8.86-3.928-9.741-4.31-10.702-4.726-11.682-5.091-12.674-5.428-13.563-5.731-14.46-6.011-15.365-6.267-15.697-6.362-16.031-6.452-16.363-6.549-16.54-6.601-16.634-6.66-16.678-6.771-16.62-7.107-16.561-7.444-16.502-7.78-16.368-8.557-16.236-9.334-16.102-10.111-16.099-10.127-16.096-10.143-16.093-10.16-16.016-10.172-15.935-10.169-15.858-10.155-15.552-10.095-15.241-10.113-14.932-10.07-11.978-9.667-9.145-8.569-6.533-7.155-6.257-7.005-5.984-6.852-5.713-6.693-5.242-6.417-4.78-6.126-4.33-5.815-3.849-5.482-3.374-5.142-2.929-4.762-2.605-4.486-2.296-4.195-1.993-3.895-1.78-3.683-1.585-3.458-1.398-3.226-1.395-3.222-1.391-3.218-1.387-3.213-1.212-3.002-1.044-2.785-.885-2.562-.336-1.79 .067-.958 0 0" fill="#c49a6c"/>
<path transform="matrix(1,0,0,-1,97.0839,70.009998)" d="M0 0C-.126 .733-.246 1.467-.371 2.2-.5 2.96-.63 3.719-.76 4.478-.861 5.063-.963 5.647-1.065 6.231-1.143 6.676-1.222 7.121-1.299 7.566-1.433 8.342-1.565 9.119-1.699 9.896-1.828 10.637-1.96 11.378-2.087 12.12-2.187 12.696-2.28 13.273-2.379 13.849-2.478 14.425-2.583 15-2.683 15.576-2.817 16.344-2.947 17.113-3.081 17.881-3.177 18.43-3.285 18.978-3.371 19.528-3.477 20.202-3.595 20.873-3.716 21.545-3.8 22.015-3.876 22.487-3.955 22.958-4.02 23.343-4.065 23.731-4.15 24.111-4.267 24.63-4.323 25.158-4.427 25.679-4.542 26.261-4.633 26.848-4.734 27.432-4.833 28-4.931 28.567-5.028 29.134-5.112 29.622-5.193 30.111-5.277 30.6-5.384 31.21-5.494 31.82-5.6 32.431-5.706 33.041-5.807 33.653-5.913 34.263-5.986 34.682-6.067 35.099-6.139 35.517-6.249 36.154-6.349 36.792-6.463 37.428-6.565 37.994-6.672 38.561-6.76 39.128-6.886 39.951-7.064 40.765-7.173 41.591-7.198 41.778-7.237 41.804-7.439 41.806-7.697 41.809-7.955 41.807-8.212 41.807-8.736 41.807-9.261 41.811-9.785 41.806-10.016 41.804-10.023 41.794-10.006 41.558-9.99 41.337-9.966 41.117-9.935 40.898-9.835 40.179-9.732 39.46-9.625 38.741-9.498 37.884-9.369 37.027-9.235 36.17-9.138 35.549-9.032 34.929-8.933 34.308-8.805 33.504-8.681 32.699-8.552 31.894-8.468 31.37-8.379 30.847-8.292 30.324-8.191 29.712-8.091 29.1-7.989 28.489-7.881 27.843-7.769 27.198-7.661 26.552-7.578 26.055-7.498 25.556-7.415 25.059-7.34 24.614-7.259 24.169-7.187 23.723-7.086 23.103-6.995 22.481-6.894 21.861-6.813 21.363-6.721 20.867-6.64 20.369-6.532 19.704-6.43 19.039-6.326 18.374-6.218 17.692-6.112 17.009-6.001 16.327-5.916 15.803-5.824 15.279-5.739 14.755-5.655 14.239-5.578 13.723-5.494 13.207-5.368 12.438-5.236 11.67-5.113 10.9-4.993 10.148-4.884 9.394-4.762 8.642-4.685 8.162-4.589 7.684-4.51 7.203-4.378 6.408-4.257 5.612-4.126 4.817-3.972 3.883-3.814 2.949-3.653 2.015-3.46 .898-3.262-.218-3.067-1.335-3.03-1.544-3.03-1.549-2.813-1.55-2.342-1.554-1.871-1.551-1.4-1.552-.929-1.552-.459-1.553 .012-1.551 .244-1.549 .271-1.513 .23-1.28 .154-.853 .073-.427 0 0" fill="#c49a6c"/>
<path transform="matrix(1,0,0,-1,101.2293,70.0101)" d="M0 0C-.126 .733-.247 1.467-.371 2.2-.499 2.96-.63 3.719-.76 4.478-.861 5.063-.963 5.647-1.065 6.231-1.143 6.676-1.222 7.121-1.299 7.566-1.433 8.342-1.565 9.119-1.699 9.896-1.828 10.638-1.96 11.378-2.087 12.12-2.186 12.696-2.28 13.273-2.379 13.849-2.479 14.425-2.583 15-2.683 15.576-2.817 16.344-2.947 17.113-3.081 17.881-3.176 18.431-3.285 18.978-3.371 19.528-3.477 20.202-3.595 20.874-3.715 21.545-3.8 22.015-3.876 22.487-3.955 22.958-4.02 23.343-4.065 23.731-4.15 24.111-4.267 24.63-4.323 25.158-4.427 25.679-4.542 26.261-4.633 26.848-4.734 27.432-4.833 28-4.931 28.567-5.028 29.134-5.112 29.622-5.193 30.112-5.277 30.6-5.384 31.21-5.494 31.82-5.6 32.431-5.706 33.041-5.807 33.653-5.913 34.263-5.986 34.682-6.067 35.099-6.139 35.517-6.248 36.154-6.348 36.793-6.463 37.428-6.565 37.994-6.672 38.561-6.76 39.128-6.886 39.951-7.064 40.765-7.173 41.591-7.198 41.778-7.237 41.804-7.439 41.807-7.697 41.809-7.955 41.807-8.212 41.807-8.279 41.807-8.345 41.807-8.412 41.808-8.869 41.808-9.327 41.81-9.785 41.806-10.016 41.804-10.023 41.794-10.006 41.558-9.99 41.337-9.966 41.117-9.935 40.898-9.835 40.179-9.732 39.46-9.626 38.742-9.498 37.884-9.369 37.027-9.235 36.17-9.138 35.549-9.032 34.929-8.934 34.309-8.805 33.504-8.681 32.699-8.552 31.894-8.468 31.37-8.379 30.847-8.292 30.324-8.191 29.712-8.091 29.1-7.989 28.489-7.881 27.843-7.769 27.198-7.661 26.552-7.577 26.055-7.498 25.556-7.415 25.059-7.34 24.614-7.259 24.169-7.187 23.723-7.086 23.103-6.994 22.481-6.894 21.861-6.813 21.363-6.72 20.867-6.64 20.369-6.532 19.705-6.43 19.039-6.325 18.374-6.218 17.692-6.111 17.009-6.001 16.327-5.916 15.803-5.825 15.279-5.739 14.755-5.655 14.239-5.578 13.723-5.494 13.207-5.368 12.438-5.236 11.67-5.113 10.9-4.993 10.148-4.884 9.394-4.762 8.643-4.685 8.162-4.589 7.684-4.51 7.203-4.378 6.408-4.257 5.612-4.126 4.818-3.972 3.883-3.814 2.949-3.652 2.015-3.46 .898-3.262-.218-3.066-1.335-3.03-1.543-3.03-1.549-2.813-1.55-2.342-1.553-1.871-1.551-1.4-1.552-1.269-1.552-1.139-1.552-1.008-1.552-.749-1.552-.489-1.552-.23-1.552-.15-1.552-.068-1.551 .012-1.55 .244-1.549 .271-1.513 .23-1.28 .154-.853 .073-.427 0 0" fill="#c49a6c"/>
<path transform="matrix(1,0,0,-1,123.5499,58.686498)" d="M0 0H2.193V-.571H.686V-1.285H1.992V-1.812H.686V-3.088H0Z" fill="#231f20"/>
<path transform="matrix(1,0,0,-1,126.6908,60.243497)" d="M0 0C0-.13 .015-.256 .046-.378 .076-.501 .125-.611 .192-.709 .259-.807 .347-.886 .454-.945 .562-1.004 .693-1.034 .847-1.034 1.002-1.034 1.133-1.004 1.241-.945 1.348-.886 1.436-.807 1.503-.709 1.57-.611 1.618-.501 1.649-.378 1.68-.256 1.695-.13 1.695 0 1.695 .135 1.68 .267 1.649 .394 1.618 .52 1.57 .634 1.503 .733 1.436 .833 1.348 .912 1.241 .971 1.133 1.03 1.002 1.06 .847 1.06 .693 1.06 .562 1.03 .454 .971 .347 .912 .259 .833 .192 .733 .125 .634 .076 .52 .046 .394 .015 .267 0 .135 0 0M-.686 0C-.686 .228-.651 .441-.581 .64-.511 .839-.411 1.012-.28 1.159-.148 1.306 .012 1.421 .201 1.505 .39 1.589 .606 1.631 .847 1.631 1.089 1.631 1.305 1.589 1.494 1.505 1.683 1.421 1.843 1.306 1.975 1.159 2.106 1.012 2.206 .839 2.276 .64 2.346 .441 2.381 .228 2.381 0 2.381-.222 2.346-.431 2.276-.627 2.206-.823 2.106-.993 1.975-1.137 1.843-1.282 1.683-1.396 1.494-1.479 1.305-1.563 1.089-1.605 .847-1.605 .606-1.605 .39-1.563 .201-1.479 .012-1.396-.148-1.282-.28-1.137-.411-.993-.511-.823-.581-.627-.651-.431-.686-.222-.686 0" fill="#231f20"/>
<path transform="matrix(1,0,0,-1,130.2248,60.083498)" d="M0 0H.751C.906 0 1.023 .035 1.103 .104 1.183 .173 1.223 .285 1.223 .441 1.223 .591 1.183 .7 1.103 .768 1.023 .835 .906 .869 .751 .869H0ZM-.686 1.397H.996C1.136 1.397 1.262 1.375 1.374 1.33 1.486 1.285 1.582 1.224 1.662 1.146 1.742 1.068 1.803 .977 1.846 .874 1.888 .77 1.909 .66 1.909 .545 1.909 .363 1.87 .206 1.793 .074 1.716-.059 1.59-.16 1.415-.229V-.238C1.5-.261 1.57-.296 1.625-.344 1.68-.391 1.726-.448 1.76-.515 1.795-.581 1.821-.652 1.837-.729 1.853-.805 1.864-.882 1.87-.96 1.873-1.009 1.875-1.067 1.878-1.133 1.881-1.2 1.886-1.267 1.894-1.334 1.901-1.402 1.913-1.468 1.929-1.531 1.945-1.595 1.969-1.648 2.001-1.691H1.315C1.294-1.642 1.279-1.588 1.269-1.529 1.259-1.47 1.25-1.408 1.243-1.343 1.236-1.278 1.23-1.212 1.225-1.144 1.221-1.076 1.214-1.012 1.206-.952 1.182-.79 1.133-.672 1.057-.597 .981-.522 .858-.484 .686-.484H0V-1.691H-.686Z" fill="#231f20"/>
<path transform="matrix(1,0,0,-1,133.9074,58.686498)" d="M0 0H2.333V-.571H.686V-1.233H2.197V-1.76H.686V-2.517H2.368V-3.088H0Z" fill="#231f20"/>
<path transform="matrix(1,0,0,-1,137.5026,60.156999)" d="M0 0-1.005 1.47H-.21L.402 .484 1.035 1.47H1.787L.786-.004 1.874-1.618H1.057L.376-.549-.319-1.618H-1.092Z" fill="#231f20"/>
<path transform="matrix(1,0,0,-1,141.7312,59.7245)" d="M0 0C-.012 .078-.038 .149-.079 .214-.119 .279-.17 .336-.232 .385-.293 .434-.362 .472-.439 .5-.516 .527-.597 .541-.681 .541-.836 .541-.967 .511-1.075 .452-1.182 .393-1.27 .314-1.337 .214-1.404 .115-1.452 .001-1.483-.125-1.514-.252-1.529-.384-1.529-.519-1.529-.649-1.514-.775-1.483-.897-1.452-1.02-1.404-1.13-1.337-1.228-1.27-1.326-1.182-1.405-1.075-1.464-.967-1.523-.836-1.553-.681-1.553-.472-1.553-.308-1.489-.19-1.36-.072-1.232 0-1.065 .026-.861H.69C.673-1.054 .628-1.228 .555-1.384 .482-1.54 .386-1.672 .266-1.782 .147-1.892 .007-1.976-.153-2.035-.313-2.094-.489-2.124-.681-2.124-.923-2.124-1.139-2.082-1.328-1.998-1.517-1.915-1.677-1.801-1.809-1.657-1.94-1.512-2.04-1.342-2.11-1.146-2.18-.95-2.215-.741-2.215-.519-2.215-.291-2.18-.078-2.11 .121-2.04 .32-1.94 .493-1.809 .64-1.677 .787-1.517 .902-1.328 .986-1.139 1.07-.923 1.112-.681 1.112-.51 1.112-.347 1.087-.194 1.038-.041 .989 .095 .918 .216 .824 .337 .73 .437 .614 .515 .476 .594 .337 .644 .179 .664 0Z" fill="#231f20"/>
<path transform="matrix(1,0,0,-1,142.8889,58.686498)" d="M0 0H.686V-1.185H1.948V0H2.634V-3.088H1.948V-1.756H.686V-3.088H0Z" fill="#231f20"/>
<path transform="matrix(1,0,0,-1,146.9122,60.5809)" d="M0 0H.808L.415 1.133H.406ZM.066 1.894H.769L1.935-1.194H1.223L.987-.506H-.179L-.424-1.194H-1.118Z" fill="#231f20"/>
<path transform="matrix(1,0,0,-1,149.1182,58.686498)" d="M0 0H.681L1.983-2.072H1.992V0H2.634V-3.088H1.948L.651-1.021H.642V-3.088H0Z" fill="#231f20"/>
<path transform="matrix(1,0,0,-1,154.6093,61.424299)" d="M0 0C-.122-.156-.258-.265-.406-.329-.555-.392-.705-.424-.856-.424-1.098-.424-1.313-.382-1.503-.298-1.692-.215-1.852-.101-1.983 .043-2.114 .187-2.215 .357-2.285 .554-2.355 .75-2.39 .959-2.39 1.181-2.39 1.408-2.355 1.622-2.285 1.821-2.215 2.02-2.114 2.193-1.983 2.34-1.852 2.487-1.692 2.602-1.503 2.686-1.313 2.769-1.098 2.811-.856 2.811-.696 2.811-.541 2.787-.391 2.74-.241 2.692-.106 2.622 .013 2.53 .133 2.438 .232 2.324 .312 2.188 .392 2.053 .441 1.897 .459 1.721H-.197C-.237 1.894-.317 2.024-.435 2.111-.553 2.197-.693 2.24-.856 2.24-1.011 2.24-1.142 2.211-1.249 2.152-1.357 2.093-1.445 2.013-1.511 1.914-1.579 1.814-1.627 1.701-1.658 1.574-1.688 1.447-1.704 1.316-1.704 1.181-1.704 1.051-1.688 .925-1.658 .802-1.627 .68-1.579 .569-1.511 .471-1.445 .373-1.357 .295-1.249 .236-1.142 .177-1.011 .147-.856 .147-.632 .147-.457 .204-.332 .318-.207 .432-.134 .597-.114 .813H-.804V1.319H.507V-.35H.07Z" fill="#231f20"/>
<path transform="matrix(1,0,0,-1,155.6709,58.686498)" d="M0 0H2.333V-.571H.686V-1.233H2.197V-1.76H.686V-2.517H2.368V-3.088H0Z" fill="#231f20"/>
<path transform="matrix(1,0,0,-1,160.5024,60.5809)" d="M0 0H.808L.415 1.133H.406ZM.066 1.894H.769L1.935-1.194H1.223L.987-.506H-.179L-.424-1.194H-1.118Z" fill="#231f20"/>
<path transform="matrix(1,0,0,-1,162.7084,58.686498)" d="M0 0H.681L1.983-2.072H1.992V0H2.634V-3.088H1.948L.651-1.021H.642V-3.088H0Z" fill="#231f20"/>
<path transform="matrix(1,0,0,-1,166.6312,61.203699)" d="M0 0H.612C.711 0 .807 .016 .9 .048 .993 .079 1.076 .132 1.149 .205 1.222 .279 1.28 .375 1.324 .493 1.367 .611 1.389 .755 1.389 .926 1.389 1.081 1.374 1.222 1.343 1.347 1.313 1.473 1.262 1.58 1.193 1.669 1.123 1.759 1.03 1.827 .915 1.875 .8 1.922 .658 1.946 .489 1.946H0ZM-.686 2.517H.66C.861 2.517 1.048 2.485 1.221 2.422 1.394 2.359 1.544 2.263 1.671 2.137 1.798 2.01 1.897 1.851 1.968 1.661 2.039 1.471 2.075 1.247 2.075 .99 2.075 .766 2.046 .558 1.988 .368 1.929 .177 1.841 .013 1.723-.125 1.605-.264 1.458-.373 1.282-.452 1.106-.531 .898-.571 .66-.571H-.686Z" fill="#231f20"/>
<path transform="matrix(1,0,0,-1,170.3968,58.686498)" d="M0 0H.965L1.695-2.124H1.704L2.394 0H3.359V-3.088H2.717V-.9H2.708L1.944-3.088H1.415L.651-.921H.642V-3.088H0Z" fill="#231f20"/>
<path transform="matrix(1,0,0,-1,174.9094,60.243497)" d="M0 0C0-.13 .015-.256 .046-.378 .076-.501 .125-.611 .192-.709 .259-.807 .347-.886 .454-.945 .562-1.004 .693-1.034 .848-1.034 1.002-1.034 1.133-1.004 1.241-.945 1.348-.886 1.436-.807 1.503-.709 1.57-.611 1.619-.501 1.649-.378 1.68-.256 1.695-.13 1.695 0 1.695 .135 1.68 .267 1.649 .394 1.619 .52 1.57 .634 1.503 .733 1.436 .833 1.348 .912 1.241 .971 1.133 1.03 1.002 1.06 .848 1.06 .693 1.06 .562 1.03 .454 .971 .347 .912 .259 .833 .192 .733 .125 .634 .076 .52 .046 .394 .015 .267 0 .135 0 0M-.686 0C-.686 .228-.651 .441-.581 .64-.511 .839-.411 1.012-.28 1.159-.148 1.306 .012 1.421 .201 1.505 .39 1.589 .606 1.631 .848 1.631 1.089 1.631 1.305 1.589 1.494 1.505 1.683 1.421 1.843 1.306 1.975 1.159 2.106 1.012 2.206 .839 2.276 .64 2.346 .441 2.381 .228 2.381 0 2.381-.222 2.346-.431 2.276-.627 2.206-.823 2.106-.993 1.975-1.137 1.843-1.282 1.683-1.396 1.494-1.479 1.305-1.563 1.089-1.605 .848-1.605 .606-1.605 .39-1.563 .201-1.479 .012-1.396-.148-1.282-.28-1.137-.411-.993-.511-.823-.581-.627-.651-.431-.686-.222-.686 0" fill="#231f20"/>
<path transform="matrix(1,0,0,-1,177.7576,58.686498)" d="M0 0H.681L1.983-2.072H1.992V0H2.634V-3.088H1.948L.651-1.021H.642V-3.088H0Z" fill="#231f20"/>
<path transform="matrix(1,0,0,-1,180.9946,58.686498)" d="M0 0H2.333V-.571H.686V-1.233H2.197V-1.76H.686V-2.517H2.368V-3.088H0Z" fill="#231f20"/>
<path transform="matrix(1,0,0,-1,184.6335,60.572198)" d="M0 0-1.149 1.886H-.376L.354 .666 1.079 1.886H1.843L.686-.017V-1.202H0Z" fill="#231f20"/>
<path transform="matrix(1,0,0,-1,188.6437,59.257398)" d="M0 0H-.935V.571H1.621V0H.686V-2.517H0Z" fill="#231f20"/>
<path transform="matrix(1,0,0,-1,191.3084,60.083498)" d="M0 0H.751C.906 0 1.023 .035 1.103 .104 1.183 .173 1.223 .285 1.223 .441 1.223 .591 1.183 .7 1.103 .768 1.023 .835 .906 .869 .751 .869H0ZM-.686 1.397H.996C1.136 1.397 1.262 1.375 1.374 1.33 1.486 1.285 1.582 1.224 1.662 1.146 1.742 1.068 1.803 .977 1.846 .874 1.888 .77 1.909 .66 1.909 .545 1.909 .363 1.87 .206 1.793 .074 1.716-.059 1.59-.16 1.415-.229V-.238C1.5-.261 1.57-.296 1.625-.344 1.68-.391 1.726-.448 1.76-.515 1.795-.581 1.821-.652 1.837-.729 1.853-.805 1.864-.882 1.87-.96 1.873-1.009 1.875-1.067 1.878-1.133 1.881-1.2 1.886-1.267 1.894-1.334 1.901-1.402 1.913-1.468 1.929-1.531 1.945-1.595 1.969-1.648 2.001-1.691H1.315C1.294-1.642 1.279-1.588 1.269-1.529 1.259-1.47 1.25-1.408 1.243-1.343 1.236-1.278 1.23-1.212 1.225-1.144 1.221-1.076 1.214-1.012 1.206-.952 1.182-.79 1.133-.672 1.057-.597 .981-.522 .858-.484 .686-.484H0V-1.691H-.686Z" fill="#231f20"/>
<path transform="matrix(1,0,0,-1,194.5629,60.5809)" d="M0 0H.808L.415 1.133H.406ZM.066 1.894H.769L1.935-1.194H1.223L.987-.506H-.179L-.424-1.194H-1.118Z" fill="#231f20"/>
<path transform="matrix(1,0,0,-1,196.769,58.686498)" d="M0 0H.681L1.983-2.072H1.992V0H2.634V-3.088H1.948L.651-1.021H.642V-3.088H0Z" fill="#231f20"/>
<path transform="matrix(1,0,0,-1,200.4734,60.749597)" d="M0 0C0-.104 .019-.192 .057-.264 .095-.336 .145-.394 .208-.439 .27-.484 .343-.517 .426-.538 .509-.56 .597-.571 .69-.571 .751-.571 .817-.566 .887-.556 .957-.546 1.022-.526 1.083-.497 1.145-.469 1.195-.429 1.236-.378 1.277-.328 1.297-.264 1.297-.186 1.297-.102 1.27-.035 1.217 .017 1.163 .069 1.092 .113 1.005 .149 .917 .185 .818 .216 .708 .24 .597 .264 .485 .293 .371 .324 .255 .353 .141 .389 .031 .43-.08 .472-.179 .526-.266 .593-.354 .659-.424 .741-.478 .839-.532 .937-.559 1.058-.559 1.202-.559 1.361-.525 1.499-.457 1.615-.388 1.732-.299 1.829-.188 1.907-.077 1.985 .048 2.043 .188 2.08 .328 2.118 .467 2.137 .607 2.137 .77 2.137 .927 2.119 1.077 2.083 1.227 2.046 1.36 1.988 1.477 1.907 1.593 1.827 1.685 1.724 1.754 1.598 1.822 1.473 1.857 1.321 1.857 1.142H1.193C1.187 1.234 1.167 1.311 1.134 1.371 1.1 1.432 1.056 1.479 1 1.514 .945 1.548 .881 1.573 .808 1.587 .735 1.602 .658 1.609 .577 1.609 .521 1.609 .466 1.603 .411 1.592 .355 1.58 .305 1.56 .26 1.531 .215 1.502 .178 1.465 .149 1.421 .119 1.376 .105 1.322 .105 1.259 .105 1.198 .116 1.149 .14 1.112 .163 1.074 .209 1.04 .277 1.01 .346 .98 .44 .948 .561 .915 .682 .882 .84 .84 1.035 .792 1.073 .783 1.123 .771 1.184 .755 1.245 .739 1.31 .717 1.378 .69 1.447 .662 1.515 .627 1.584 .584 1.652 .541 1.715 .487 1.771 .424 1.828 .36 1.874 .285 1.909 .197 1.944 .109 1.961 .007 1.961-.108 1.961-.249 1.934-.381 1.878-.502 1.823-.623 1.741-.727 1.632-.815 1.522-.903 1.387-.972 1.225-1.023 1.064-1.073 .877-1.099 .664-1.099 .492-1.099 .325-1.077 .164-1.034 .002-.99-.14-.924-.262-.835-.384-.745-.483-.631-.557-.493-.631-.355-.667-.19-.664 0Z" fill="#231f20"/>
<path transform="matrix(1,0,0,-1,202.8411,58.686498)" d="M0 0H2.193V-.571H.686V-1.285H1.992V-1.812H.686V-3.088H0Z" fill="#231f20"/>
<path transform="matrix(1,0,0,-1,205.4315,58.686498)" d="M0 0H2.333V-.571H.686V-1.233H2.197V-1.76H.686V-2.517H2.368V-3.088H0Z" fill="#231f20"/>
<path transform="matrix(1,0,0,-1,208.9481,60.083498)" d="M0 0H.751C.906 0 1.023 .035 1.103 .104 1.183 .173 1.223 .285 1.223 .441 1.223 .591 1.183 .7 1.103 .768 1.023 .835 .906 .869 .751 .869H0ZM-.686 1.397H.996C1.136 1.397 1.262 1.375 1.374 1.33 1.486 1.285 1.582 1.224 1.662 1.146 1.742 1.068 1.803 .977 1.846 .874 1.888 .77 1.909 .66 1.909 .545 1.909 .363 1.87 .206 1.793 .074 1.716-.059 1.59-.16 1.415-.229V-.238C1.5-.261 1.57-.296 1.625-.344 1.68-.391 1.726-.448 1.76-.515 1.795-.581 1.821-.652 1.837-.729 1.853-.805 1.864-.882 1.87-.96 1.873-1.009 1.875-1.067 1.878-1.133 1.881-1.2 1.886-1.267 1.894-1.334 1.901-1.402 1.913-1.468 1.929-1.531 1.945-1.595 1.969-1.648 2.001-1.691H1.315C1.294-1.642 1.279-1.588 1.269-1.529 1.259-1.47 1.25-1.408 1.243-1.343 1.236-1.278 1.23-1.212 1.225-1.144 1.221-1.076 1.214-1.012 1.206-.952 1.182-.79 1.133-.672 1.057-.597 .981-.522 .858-.484 .686-.484H0V-1.691H-.686Z" fill="#231f20"/>
<path transform="matrix(1,0,0,-1,211.8837,60.749597)" d="M0 0C0-.104 .019-.192 .057-.264 .095-.336 .145-.394 .208-.439 .27-.484 .343-.517 .426-.538 .509-.56 .597-.571 .69-.571 .751-.571 .817-.566 .887-.556 .957-.546 1.022-.526 1.083-.497 1.145-.469 1.195-.429 1.236-.378 1.277-.328 1.297-.264 1.297-.186 1.297-.102 1.27-.035 1.217 .017 1.163 .069 1.092 .113 1.005 .149 .917 .185 .818 .216 .708 .24 .597 .264 .485 .293 .371 .324 .255 .353 .141 .389 .031 .43-.08 .472-.179 .526-.266 .593-.354 .659-.424 .741-.478 .839-.532 .937-.559 1.058-.559 1.202-.559 1.361-.525 1.499-.457 1.615-.388 1.732-.299 1.829-.188 1.907-.077 1.985 .048 2.043 .188 2.08 .328 2.118 .467 2.137 .607 2.137 .77 2.137 .927 2.119 1.077 2.083 1.227 2.046 1.36 1.988 1.477 1.907 1.593 1.827 1.685 1.724 1.754 1.598 1.822 1.473 1.857 1.321 1.857 1.142H1.193C1.187 1.234 1.167 1.311 1.134 1.371 1.1 1.432 1.056 1.479 1 1.514 .945 1.548 .881 1.573 .808 1.587 .735 1.602 .658 1.609 .577 1.609 .521 1.609 .466 1.603 .411 1.592 .355 1.58 .305 1.56 .26 1.531 .215 1.502 .178 1.465 .149 1.421 .119 1.376 .105 1.322 .105 1.259 .105 1.198 .116 1.149 .14 1.112 .163 1.074 .209 1.04 .277 1.01 .346 .98 .44 .948 .561 .915 .682 .882 .84 .84 1.035 .792 1.073 .783 1.123 .771 1.184 .755 1.245 .739 1.31 .717 1.378 .69 1.447 .662 1.515 .627 1.584 .584 1.652 .541 1.715 .487 1.771 .424 1.828 .36 1.874 .285 1.909 .197 1.944 .109 1.961 .007 1.961-.108 1.961-.249 1.934-.381 1.878-.502 1.823-.623 1.741-.727 1.632-.815 1.522-.903 1.387-.972 1.225-1.023 1.064-1.073 .877-1.099 .664-1.099 .492-1.099 .325-1.077 .164-1.034 .002-.99-.14-.924-.262-.835-.384-.745-.483-.631-.557-.493-.631-.355-.667-.19-.664 0Z" fill="#231f20"/>
<path transform="matrix(1,0,0,-1,129.3112,49.302099)" d="M0 0H4.113L2.112 5.768H2.068ZM.334 9.642H3.913L9.85-6.076H6.226L5.025-2.576H-.912L-2.157-6.076H-5.692Z" fill="#231f20"/>
<path transform="matrix(1,0,0,-1,140.5397,39.659997)" d="M0 0H3.491V-12.812H11.229V-15.718H0Z" fill="#231f20"/>
<path transform="matrix(1,0,0,-1,163.0191,50.424798)" d="M0 0C0-.338-.022-.704-.067-1.101-.111-1.497-.197-1.893-.322-2.289-.449-2.686-.63-3.064-.867-3.423-1.104-3.783-1.42-4.106-1.812-4.392-2.205-4.678-2.687-4.906-3.257-5.074-3.828-5.243-4.506-5.327-5.292-5.327-5.959-5.327-6.604-5.235-7.226-5.052-7.849-4.869-8.405-4.579-8.894-4.183-9.383-3.786-9.776-3.284-10.072-2.675-10.369-2.066-10.517-1.328-10.517-.462V.903H-7.36V.198C-7.36-.184-7.33-.536-7.271-.858-7.212-1.182-7.108-1.457-6.959-1.684-6.811-1.912-6.608-2.091-6.348-2.223-6.089-2.355-5.751-2.421-5.336-2.421-4.877-2.421-4.521-2.341-4.269-2.179-4.017-2.018-3.836-1.809-3.724-1.552-3.613-1.295-3.546-1.016-3.524-.715-3.502-.415-3.491-.125-3.491 .154V10.765H0Z" fill="#231f20"/>
<path transform="matrix(1,0,0,-1,168.8891,47.585)" d="M0 0C0-.66 .078-1.303 .233-1.926 .389-2.55 .637-3.111 .978-3.61 1.319-4.109 1.764-4.509 2.312-4.81 2.861-5.111 3.528-5.261 4.314-5.261 5.099-5.261 5.766-5.111 6.315-4.81 6.863-4.509 7.308-4.109 7.649-3.61 7.99-3.111 8.238-2.55 8.394-1.926 8.549-1.303 8.627-.66 8.627 0 8.627 .69 8.549 1.357 8.394 2.003 8.238 2.649 7.99 3.225 7.649 3.731 7.308 4.238 6.863 4.641 6.315 4.942 5.766 5.243 5.099 5.393 4.314 5.393 3.528 5.393 2.861 5.243 2.312 4.942 1.764 4.641 1.319 4.238 .978 3.731 .637 3.225 .389 2.649 .233 2.003 .078 1.357 0 .69 0 0M-3.491 0C-3.491 1.159-3.313 2.245-2.957 3.258-2.601 4.271-2.09 5.151-1.423 5.9-.756 6.648 .059 7.235 1.023 7.661 1.986 8.086 3.083 8.299 4.314 8.299 5.544 8.299 6.641 8.086 7.604 7.661 8.568 7.235 9.383 6.648 10.05 5.9 10.717 5.151 11.229 4.271 11.584 3.258 11.94 2.245 12.118 1.159 12.118 0 12.118-1.13 11.94-2.194 11.584-3.192 11.229-4.19 10.717-5.056 10.05-5.79 9.383-6.524 8.568-7.103 7.604-7.529 6.641-7.954 5.544-8.167 4.314-8.167 3.083-8.167 1.986-7.954 1.023-7.529 .059-7.103-.756-6.524-1.423-5.79-2.09-5.056-2.601-4.19-2.957-3.192-3.313-2.194-3.491-1.13-3.491 0" fill="#231f20"/>
<path transform="matrix(1,0,0,-1,196.8603,49.434099)" d="M0 0C0-2.128-.6-3.713-1.801-4.755-3.002-5.797-4.662-6.318-6.782-6.318-8.931-6.318-10.595-5.801-11.773-4.766-12.952-3.731-13.541-2.143-13.541 0V9.774H-10.05V0C-10.05-.426-10.013-.844-9.939-1.255-9.865-1.666-9.709-2.033-9.472-2.356-9.235-2.679-8.905-2.936-8.483-3.126-8.06-3.317-7.493-3.412-6.782-3.412-5.536-3.412-4.677-3.137-4.202-2.587-3.728-2.036-3.491-1.174-3.491 0V9.774H0Z" fill="#231f20"/>
<path transform="matrix(1,0,0,-1,203.3529,52.4721)" d="M0 0H3.113C3.617 0 4.106 .081 4.58 .242 5.055 .403 5.477 .671 5.848 1.046 6.218 1.42 6.515 1.908 6.737 2.51 6.959 3.111 7.071 3.845 7.071 4.711 7.071 5.504 6.993 6.219 6.837 6.857 6.681 7.496 6.426 8.042 6.07 8.497 5.714 8.952 5.244 9.301 4.658 9.543 4.072 9.785 3.35 9.906 2.49 9.906H0ZM-3.491 12.812H3.357C4.38 12.812 5.333 12.651 6.215 12.328 7.096 12.005 7.86 11.521 8.505 10.875 9.15 10.229 9.653 9.422 10.017 8.453 10.38 7.485 10.562 6.347 10.562 5.041 10.562 3.897 10.413 2.84 10.117 1.871 9.82 .903 9.372 .066 8.772-.638 8.171-1.343 7.423-1.897 6.526-2.3 5.629-2.704 4.573-2.906 3.357-2.906H-3.491Z" fill="#231f20"/>
</g>
</g>
</svg>
