<?xml version="1.0" encoding="utf-8"?>
<!-- Generator: Adobe Illustrator 26.0.1, SVG Export Plug-In . SVG Version: 6.00 Build 0)  -->
<svg version="1.1" id="Layer_1" xmlns="http://www.w3.org/2000/svg" xmlns:xlink="http://www.w3.org/1999/xlink" x="0px" y="0px"
	 viewBox="0 0 910.5 720" style="enable-background:new 0 0 910.5 720;" xml:space="preserve">
<style type="text/css">
	.st0{fill:url(#SVGID_1_);}
	.st1{fill:url(#SVGID_00000145749434523186965210000010501009763164753594_);}
	.st2{fill:url(#SVGID_00000029726342412680459260000006588840858503574962_);}
</style>
<linearGradient id="SVGID_1_" gradientUnits="userSpaceOnUse" x1="299.5778" y1="453.5048" x2="736.2" y2="453.5048" gradientTransform="matrix(1 0 0 -1 -44.6 581.3998)">
	<stop  offset="0" style="stop-color:#0095DB"/>
	<stop  offset="1" style="stop-color:#27348B"/>
</linearGradient>
<path class="st0" d="M524.7,242.5l-20,11.5l-3,1.8l-3-1.8L291.3,132c-8.7,8.2-22.3,7.8-30.5-0.9s-7.8-22.3,0.9-30.5
	s22.3-7.8,30.5,0.9c5.1,5.4,7,12.9,5.2,20.1l204.3,120.2l17-9.8c-0.8-3.4-0.8-7,0-10.4l-207.4-122l-8.9-5.3l9-5.2l37.9-21.9l3-1.8
	l3,1.8l136.4,80.2l45.3-3.5L404.9,66.4c-1.2,1.1-2.6,2.2-4,3c-10.3,5.9-23.5,2.4-29.4-7.9c-5.9-10.3-2.4-23.5,7.9-29.4
	s23.5-2.4,29.4,7.9c2.8,4.9,3.6,10.6,2.2,16l204.4,120.2l25.9-15L533.5,97.9l-2.3-1.4l-0.5-2.6l-9.8-47.7L453.9,6.9l12-6.9
	l63.4,37.2l2.3,1.4l0.5,2.6l9.8,47.7l111.3,65.5l25.9-14.9l-85.8-50.5c-1.2,1.2-2.6,2.2-4,3c-10.3,6-23.5,2.4-29.4-7.9
	s-2.4-23.5,7.9-29.4c10.3-6,23.5-2.4,29.4,7.9c2.8,4.9,3.6,10.6,2.2,16.1l92.2,54.2v13.4l-48.7,28.1l-24.5,14.1l-3,1.8l-3-1.8
	l-57.1-33.6l-64.5,5l-3.5-0.8l-135-79.4l-25.9,14.9l198.4,116.8c8.7-8.1,22.3-7.7,30.4,0.9c8.1,8.7,7.7,22.3-0.9,30.4
	C546,250.5,533,250.4,524.7,242.5z M491.4,73.1L416,28.8l12-6.9l75.4,44.3L491.4,73.1L491.4,73.1z M530.4,224.5
	c-1.4,5,1.6,10.2,6.7,11.6c5,1.4,10.2-1.6,11.6-6.7c1.4-5-1.6-10.2-6.7-11.6c-2.4-0.7-5-0.3-7.2,0.9
	C532.6,220,531,222.1,530.4,224.5z M381.1,48.3c-1.4,5,1.6,10.2,6.7,11.6c5,1.4,10.2-1.6,11.6-6.7s-1.6-10.2-6.7-11.6
	c-2.4-0.7-5-0.3-7.2,0.9C383.3,43.8,381.7,45.9,381.1,48.3z M267.4,113.9c-1.4,5,1.6,10.2,6.7,11.6c5,1.4,10.2-1.6,11.6-6.7
	c1.4-5-1.6-10.2-6.7-11.6c-2.4-0.6-5-0.3-7.2,0.9C269.6,109.4,268,111.5,267.4,113.9z M569.4,70.8c-1.4,5,1.6,10.2,6.7,11.6
	c5,1.4,10.2-1.6,11.6-6.7S586,65.5,581,64.1c-2.4-0.7-5-0.3-7.2,0.9C571.6,66.3,570,68.4,569.4,70.8z M577.4,212.1l-45.2-26.7
	l12-6.9l45.2,26.7L577.4,212.1L577.4,212.1z"/>
<linearGradient id="SVGID_00000083088546843167085960000008498065970712743315_" gradientUnits="userSpaceOnUse" x1="248.245" y1="248.3132" x2="479.7343" y2="248.3132" gradientTransform="matrix(1 0 0 -1 -44.6 581.3998)">
	<stop  offset="0" style="stop-color:#0095DB"/>
	<stop  offset="1" style="stop-color:#27348B"/>
</linearGradient>
<path style="fill:url(#SVGID_00000083088546843167085960000008498065970712743315_);" d="M398.8,231.5l20,11.5l3,1.8v3.5l-2,240.6
	c11.4,3.4,17.8,15.4,14.4,26.8c-3.4,11.4-15.4,17.8-26.8,14.4c-11.4-3.4-17.8-15.4-14.4-26.8c2.1-7,7.7-12.5,14.8-14.5l2-237
	l-17-9.8c-2.5,2.4-5.6,4.2-9,5.1l-2,240.6l-0.1,10.4l-9-5.2l-37.9-21.9l-3-1.8v-3.5l1.3-158.3L307.4,270l-1.3,153.3
	c11.4,3.4,17.9,15.4,14.5,26.8s-15.4,17.9-26.8,14.5c-11.4-3.4-17.9-15.4-14.5-26.8c2.1-7.1,7.7-12.6,14.8-14.6l2-237.1l-25.9-15
	l-1,125v2.7l-2,1.8L230.8,333l-0.6,77.6l-12-6.9l0.5-73.5v-2.7l2-1.8l36.4-32.4l1.1-129.1l-26-15l-0.9,99.6c1.6,0.5,3.1,1.2,4.6,2
	c10.3,6,13.8,19.1,7.9,29.4c-6,10.3-19.1,13.8-29.4,7.9c-10.3-6-13.8-19.1-7.9-29.4c2.8-4.9,7.4-8.5,12.9-10l0.9-107l11.6-6.7
	l48.8,28.1l24.5,14.1l3,1.8v3.5l-0.5,66.2l36.5,53.3l1.1,3.5l-1.3,156.6l25.9,14.9l1.9-230.2c-1.6-0.5-3.1-1.2-4.6-2
	c-10.3-6-13.8-19.1-7.9-29.4c6-10.3,19.1-13.8,29.4-7.9C397,212.5,401.1,222.2,398.8,231.5z M268.7,345l-0.6,87.5l-12-6.9l0.6-87.5
	L268.7,345L268.7,345z M380.3,235.5c5-1.4,8-6.5,6.7-11.6c-1.4-5-6.5-8-11.6-6.7c-5,1.4-8,6.5-6.7,11.6c0.6,2.4,2.2,4.5,4.4,5.7
	C375.3,235.8,377.9,236.2,380.3,235.5z M302.4,453c5-1.3,8-6.5,6.7-11.6c-1.3-5-6.5-8-11.6-6.7c-5,1.3-8,6.5-6.7,11.6
	c0.6,2.4,2.2,4.5,4.4,5.7C297.4,453.3,300,453.7,302.4,453z M416.1,518.7c5-1.4,8-6.5,6.7-11.6s-6.5-8-11.6-6.7
	c-5,1.4-8,6.5-6.7,11.5C405.9,517,411,520,416.1,518.7z M227.7,278.7c5-1.4,8-6.5,6.7-11.6c-1.4-5-6.5-8-11.6-6.7
	c-5,1.4-8,6.5-6.7,11.6c0.6,2.4,2.2,4.5,4.4,5.7C222.7,279,225.3,279.3,227.7,278.7z M346.1,201.1l-0.5,52.5l-12-6.9l0.5-52.5
	L346.1,201.1L346.1,201.1z"/>
<linearGradient id="SVGID_00000157290900738885080170000013230204556234088324_" gradientUnits="userSpaceOnUse" x1="481.32" y1="222.3145" x2="751.71" y2="222.3145" gradientTransform="matrix(1 0 0 -1 -44.6 581.3998)">
	<stop  offset="0" style="stop-color:#0095DB"/>
	<stop  offset="1" style="stop-color:#27348B"/>
</linearGradient>
<path style="fill:url(#SVGID_00000157290900738885080170000013230204556234088324_);" d="M452.2,346.1v-26.5l3.1-1.7l209.4-118.6
	c-0.4-1.6-0.6-3.3-0.6-5c0-11.9,9.6-21.5,21.5-21.5c11.9,0,21.5,9.6,21.5,21.5c0,11.9-9.6,21.5-21.5,21.5c-5.6,0-11-2.2-15-6.1
	L464.3,326.5v19.6c3.4,1,6.5,2.8,9,5.2l209.3-118.6l9-5.1v57.6l-3.1,1.8l-137.7,78l-19.6,41l133.4-75.6c-0.4-1.6-0.6-3.3-0.6-4.9
	c0-11.9,9.6-21.5,21.5-21.5c11.9,0,21.5,9.6,21.5,21.5c0,11.9-9.6,21.5-21.5,21.5c-5.6,0-11-2.2-15-6.1L464.3,457.7v29.9L573,426
	l2.3-1.3l2.5,0.8l46.2,15.3l67.5-38.3v13.9l-63.9,36.3l-2.3,1.3l-2.5-0.8l-46.2-15.3l-112.4,63.7v29.9l86.7-49.1
	c-0.4-1.6-0.6-3.3-0.6-5c0-11.9,9.6-21.5,21.5-21.5c11.9,0,21.5,9.6,21.5,21.5c0,11.9-9.6,21.5-21.5,21.5c-5.6,0-11-2.2-15-6.1
	l-93.1,52.7l-11.6-6.7v-88.1l3.1-1.7l57.6-32.6l27.9-58.3l2.5-2.6l136.3-77.2v-29.9L479.2,361.8c0.4,1.6,0.6,3.3,0.6,5
	c0,11.9-9.7,21.5-21.6,21.5c-11.9,0-21.5-9.7-21.5-21.6C436.7,357.2,443,348.8,452.2,346.1L452.2,346.1z M615.5,401.9l76.1-43.2
	v13.9l-76.1,43.2V401.9z M464.9,360.1c-3.7-3.7-9.7-3.7-13.4,0c-3.7,3.7-3.7,9.7,0,13.4c3.7,3.7,9.7,3.7,13.4,0
	c1.8-1.8,2.8-4.2,2.8-6.7C467.7,364.2,466.7,361.8,464.9,360.1z M692.2,318.8c-3.7-3.7-9.7-3.7-13.4,0c-3.7,3.7-3.7,9.7,0,13.4
	c3.7,3.7,9.7,3.7,13.4,0c1.8-1.8,2.8-4.2,2.8-6.7C695,323,694,320.6,692.2,318.8z M692.2,187.5c-3.7-3.7-9.7-3.7-13.4,0
	c-3.7,3.7-3.7,9.7,0,13.4c3.7,3.7,9.7,3.7,13.4,0c1.8-1.8,2.8-4.2,2.8-6.7C695,191.7,694,189.3,692.2,187.5z M578.6,470.7
	c-3.7-3.7-9.6-3.7-13.3,0c-3.7,3.7-3.7,9.6,0,13.3c3.7,3.7,9.6,3.7,13.3,0c1.8-1.8,2.7-4.2,2.7-6.7
	C581.3,474.8,580.3,472.4,578.6,470.7z M452.2,406.9l45.7-25.8v13.9l-45.7,25.8V406.9z"/>
</svg>
