<svg id="Layer_1" data-name="Layer 1" xmlns="http://www.w3.org/2000/svg" xmlns:xlink="http://www.w3.org/1999/xlink" viewBox="0 0 910.46 720.01"><defs><style>.cls-1{fill:url(#linear-gradient);}.cls-2{fill:url(#linear-gradient-2);}.cls-3{fill:url(#linear-gradient-3);}.cls-4{fill:#134483;}.cls-5{fill:#36a9e1;}</style><linearGradient id="linear-gradient" x1="299.57" y1="266.41" x2="736.22" y2="266.41" gradientUnits="userSpaceOnUse"><stop offset="0" stop-color="#0095db"/><stop offset="1" stop-color="#27348b"/></linearGradient><linearGradient id="linear-gradient-2" x1="248.29" y1="471.59" x2="479.74" y2="471.59" xlink:href="#linear-gradient"/><linearGradient id="linear-gradient-3" x1="481.3" y1="497.58" x2="751.71" y2="497.58" xlink:href="#linear-gradient"/></defs><path class="cls-1" d="M569.3,381l-20,11.54-3,1.75-3-1.79-207.37-122a21.56,21.56,0,1,1,6.11-10.4L546.3,380.33l17-9.78a21.56,21.56,0,0,1,0-10.38l-207.36-122L347,232.89l9-5.18,37.89-21.87,3-1.76,3,1.8,136.4,80.25,45.33-3.5L449.54,204.89a22,22,0,0,1-4,3,21.53,21.53,0,1,1,10.11-13.36L660,314.71l25.88-14.95L578.14,236.38,575.81,235l-.54-2.59-9.85-47.69-66.93-39.3,12-6.94,63.36,37.21,2.33,1.37.53,2.6,9.85,47.68,111.29,65.48,25.88-14.94L637.9,227.38a21.23,21.23,0,0,1-4,3A21.55,21.55,0,1,1,644,217l92.2,54.25v13.42L687.47,312.8,663,326.94l-3,1.75-3-1.79-57.08-33.59-64.45,5-3.52-.8-135-79.42L371,233,569.41,349.77A21.52,21.52,0,1,1,569.3,381ZM536,211.61l-75.42-44.3,12-6.94L548,204.68l-12,6.93Zm39,151.4a9.45,9.45,0,1,0,4.4-5.73,9.44,9.44,0,0,0-4.4,5.73ZM425.66,186.76a9.45,9.45,0,1,0,4.4-5.73,9.4,9.4,0,0,0-4.4,5.73ZM312,252.38a9.44,9.44,0,1,0,4.4-5.73,9.42,9.42,0,0,0-4.4,5.73Zm302-43.12a9.45,9.45,0,1,0,4.4-5.73,9.4,9.4,0,0,0-4.4,5.73Zm8,141.33-45.23-26.67,12-6.92L634,343.66l-12,6.93Z" transform="translate(-44.6 -138.49)"/><path class="cls-2" d="M443.4,370l20,11.54,3,1.75,0,3.53-2,240.6a21.53,21.53,0,1,1-12.06-.1l2-237-17-9.79a21.58,21.58,0,0,1-9,5.15l-2,240.58-.08,10.38-9-5.18-37.9-21.88-3-1.75,0-3.53L377.7,446,352,408.47l-1.27,153.3a21.56,21.56,0,1,1-12.06-.09l2-237.06-25.89-14.95-1,125,0,2.7-2,1.76-36.37,32.38-.57,77.61-12-6.93.54-73.47,0-2.7,2-1.77,36.37-32.37,1.07-129.12L276.85,287.8,276,387.39a21.76,21.76,0,0,1,4.57,2A21.54,21.54,0,1,1,264,387.29l.88-107,11.62-6.71,48.75,28.14,24.49,14.15,3,1.75,0,3.53-.55,66.23,36.54,53.32,1.06,3.45-1.29,156.61,25.89,14.94,1.89-230.22a21.72,21.72,0,0,1-4.56-2A21.53,21.53,0,1,1,443.4,370ZM313.31,483.51,312.66,571l-12-6.94.65-87.46,12,6.93ZM424.91,374a9.44,9.44,0,1,0-7.16-.94,9.42,9.42,0,0,0,7.16.94ZM347,591.52a9.44,9.44,0,1,0-7.16-.95,9.41,9.41,0,0,0,7.16.95Zm113.67,65.62a9.43,9.43,0,1,0-11.56-6.67,9.44,9.44,0,0,0,11.56,6.67Zm-188.37-240a9.44,9.44,0,1,0-7.16-.94,9.39,9.39,0,0,0,7.16.94Zm118.41-77.58-.47,52.51-12-6.93.48-52.51,12,6.93Z" transform="translate(-44.6 -138.49)"/><path class="cls-3" d="M496.78,484.54V458l3.06-1.73L709.21,337.64a21.23,21.23,0,0,1-.58-4.95,21.54,21.54,0,1,1,6.52,15.44L508.88,465v19.57a21.54,21.54,0,0,1,9,5.24L727.19,371.2l9-5.11V423.7l-3.07,1.75-137.71,78-19.63,41,133.4-75.56a21.14,21.14,0,0,1-.58-4.94,21.54,21.54,0,1,1,6.52,15.44L508.88,596.22v29.89l108.75-61.6,2.34-1.33,2.53.84,46.21,15.31L736.22,541v13.87l-63.9,36.26L670,592.48l-2.52-.83-46.22-15.32L508.88,640v29.89l86.65-49.08a21.84,21.84,0,0,1-.56-4.95,21.54,21.54,0,1,1,6.52,15.44L508.41,684l-11.63-6.71V589.21l3.06-1.74,57.64-32.64,27.91-58.31,2.46-2.64,136.26-77.19V386.81L523.8,500.27a21.77,21.77,0,0,1,.56,5,21.52,21.52,0,1,1-27.58-20.68Zm163.36,55.89,76.08-43.17v13.87L660.14,554.3V540.43ZM509.51,498.54a9.45,9.45,0,1,0,2.76,6.68,9.45,9.45,0,0,0-2.76-6.68Zm227.34-41.26a9.45,9.45,0,1,0,2.76,6.67,9.42,9.42,0,0,0-2.76-6.67Zm0-131.26a9.45,9.45,0,1,0,2.76,6.67,9.45,9.45,0,0,0-2.76-6.67ZM623.17,609.16a9.42,9.42,0,1,0,2.77,6.67,9.37,9.37,0,0,0-2.77-6.67ZM496.78,545.41l45.71-25.84v13.86l-45.71,25.84V545.41Z" transform="translate(-44.6 -138.49)"/><path class="cls-4" d="M48.81,702.81a3.89,3.89,0,0,1-3-1.32,5.46,5.46,0,0,1,0-6.78,3.87,3.87,0,0,1,3-1.33h47a3.87,3.87,0,0,1,3,1.33,5.46,5.46,0,0,1,0,6.78,3.89,3.89,0,0,1-3,1.32Zm23.55,67.3a4.2,4.2,0,0,1-3.25-1.48A5.23,5.23,0,0,1,67.79,765V693.38h9.14V765a5.23,5.23,0,0,1-1.32,3.63A4.2,4.2,0,0,1,72.36,770.11Z" transform="translate(-44.6 -138.49)"/><path class="cls-4" d="M116.9,770.5a23.84,23.84,0,0,1-21.83-13.12,30,30,0,0,1-3.21-14.09,31.7,31.7,0,0,1,3-14.2,23.74,23.74,0,0,1,8.39-9.63,22.07,22.07,0,0,1,12.3-3.48,20.31,20.31,0,0,1,11.77,3.38,21.48,21.48,0,0,1,7.51,9.34,34,34,0,0,1,2.59,13.7,4.38,4.38,0,0,1-1.14,3.1,3.78,3.78,0,0,1-2.9,1.22H98v-7.85h35.15l-3.61,2.75a23,23,0,0,0-1.75-8.8,14.7,14.7,0,0,0-4.75-6.14,12.3,12.3,0,0,0-7.46-2.26,14.69,14.69,0,0,0-8.57,2.46,15.38,15.38,0,0,0-5.4,6.73,24.18,24.18,0,0,0-1.85,9.68,20.45,20.45,0,0,0,2.2,9.62,17,17,0,0,0,6.06,6.68,16.19,16.19,0,0,0,8.87,2.46,15.14,15.14,0,0,0,5.58-1.13,16.72,16.72,0,0,0,4.61-2.6,4.65,4.65,0,0,1,2.86-1.13,3.57,3.57,0,0,1,2.68,1,4.85,4.85,0,0,1,1.58,3.24,3.64,3.64,0,0,1-1.4,3,23.73,23.73,0,0,1-7.43,4.32A24.12,24.12,0,0,1,116.9,770.5Z" transform="translate(-44.6 -138.49)"/><path class="cls-4" d="M167.16,770.5a22.38,22.38,0,0,1-12.52-3.59,24.76,24.76,0,0,1-8.61-9.72,30.28,30.28,0,0,1-3.12-13.9A31.39,31.39,0,0,1,146,729.14a24,24,0,0,1,8.44-9.68,22.07,22.07,0,0,1,12.3-3.48,20.41,20.41,0,0,1,9.49,2.21,23.28,23.28,0,0,1,7.73,6.63,3.84,3.84,0,0,1,.88,3.24,5.16,5.16,0,0,1-1.94,3,3,3,0,0,1-2.72.63,5.18,5.18,0,0,1-2.72-1.71,13.46,13.46,0,0,0-10.72-5.11,13.83,13.83,0,0,0-7.91,2.31,15.49,15.49,0,0,0-5.36,6.43,22.7,22.7,0,0,0-1.93,9.73,21.55,21.55,0,0,0,2,9.43,16.08,16.08,0,0,0,5.49,6.53,14,14,0,0,0,8.17,2.41,15.87,15.87,0,0,0,5.4-.84,12.46,12.46,0,0,0,4.26-2.6,5.1,5.1,0,0,1,2.9-1.43,3.26,3.26,0,0,1,2.64.94,4.88,4.88,0,0,1,1.67,3.09,3.93,3.93,0,0,1-1.06,3.1A21.06,21.06,0,0,1,167.16,770.5Z" transform="translate(-44.6 -138.49)"/><path class="cls-4" d="M200.89,750.56a4.12,4.12,0,0,1-3.2-1.43,5.17,5.17,0,0,1-1.28-3.58V698.39a5.11,5.11,0,0,1,1.28-3.63,4.47,4.47,0,0,1,6.46,0,5.26,5.26,0,0,1,1.23,3.63v47.16a5.33,5.33,0,0,1-1.23,3.58A4.12,4.12,0,0,1,200.89,750.56Zm0,19.64a4.11,4.11,0,0,1-3.2-1.42,5.19,5.19,0,0,1-1.28-3.59V721.38a5.15,5.15,0,0,1,1.28-3.64,4.49,4.49,0,0,1,6.46,0,5.31,5.31,0,0,1,1.23,3.64v43.81a5.35,5.35,0,0,1-1.23,3.59A4.11,4.11,0,0,1,200.89,770.2Zm36.11,0a4.1,4.1,0,0,1-3.2-1.42,5.19,5.19,0,0,1-1.28-3.59V741a19.73,19.73,0,0,0-1.84-9.14,12.31,12.31,0,0,0-5-5.26,14.64,14.64,0,0,0-7.16-1.71,13.44,13.44,0,0,0-6.67,1.66,13,13,0,0,0-4.75,4.48,11.83,11.83,0,0,0-1.75,6.43h-5.54a22.45,22.45,0,0,1,2.68-11,20.44,20.44,0,0,1,7.34-7.71,19.61,19.61,0,0,1,10.45-2.85,20.47,20.47,0,0,1,10.85,2.9,20,20,0,0,1,7.56,8.49A31,31,0,0,1,241.49,741v24.16a5.19,5.19,0,0,1-1.28,3.59A4.12,4.12,0,0,1,237,770.2Z" transform="translate(-44.6 -138.49)"/><path class="cls-4" d="M259.14,770.2a4.1,4.1,0,0,1-3.2-1.42,5.19,5.19,0,0,1-1.28-3.59V721.38a5.15,5.15,0,0,1,1.28-3.64,4.48,4.48,0,0,1,6.45,0,5.26,5.26,0,0,1,1.23,3.64v43.81a5.3,5.3,0,0,1-1.23,3.59A4.07,4.07,0,0,1,259.14,770.2Zm36.11,0a4.08,4.08,0,0,1-3.2-1.42,5.19,5.19,0,0,1-1.28-3.59V741a19.73,19.73,0,0,0-1.84-9.14,12.31,12.31,0,0,0-5-5.26,14.64,14.64,0,0,0-7.16-1.71,13.44,13.44,0,0,0-6.67,1.66,13,13,0,0,0-4.75,4.48,11.84,11.84,0,0,0-1.76,6.43h-5.53a22.45,22.45,0,0,1,2.68-11,20.37,20.37,0,0,1,7.34-7.71,19.59,19.59,0,0,1,10.45-2.85,20.47,20.47,0,0,1,10.85,2.9,20,20,0,0,1,7.56,8.49A31,31,0,0,1,299.73,741v24.16a5.19,5.19,0,0,1-1.27,3.59A4.12,4.12,0,0,1,295.25,770.2Z" transform="translate(-44.6 -138.49)"/><path class="cls-4" d="M334.61,770.5A22.75,22.75,0,0,1,322.05,767a24.09,24.09,0,0,1-8.57-9.63,33.62,33.62,0,0,1,0-28.29,24.23,24.23,0,0,1,8.57-9.63,24.26,24.26,0,0,1,25,0,24.13,24.13,0,0,1,8.56,9.63,33.87,33.87,0,0,1,.05,28.29,23.76,23.76,0,0,1-8.52,9.63A22.78,22.78,0,0,1,334.61,770.5Zm0-8.84a14.21,14.21,0,0,0,8.09-2.36,15.88,15.88,0,0,0,5.49-6.48,22,22,0,0,0,2-9.53,22.22,22.22,0,0,0-2-9.58,15.87,15.87,0,0,0-5.49-6.54,15.08,15.08,0,0,0-16.17,0,16.11,16.11,0,0,0-5.53,6.54,21.66,21.66,0,0,0-2,9.58,21.41,21.41,0,0,0,2,9.53,16.12,16.12,0,0,0,5.53,6.48A14.18,14.18,0,0,0,334.61,761.66Z" transform="translate(-44.6 -138.49)"/><path class="cls-4" d="M381.79,770.11a10.75,10.75,0,0,1-6.85-2.36,15.42,15.42,0,0,1-4.66-6.44,24.61,24.61,0,0,1-1.67-9.38V698.29a5.08,5.08,0,0,1,1.23-3.53,4.32,4.32,0,0,1,6.33,0,5.08,5.08,0,0,1,1.23,3.53v53.64a12.89,12.89,0,0,0,1.23,6c.82,1.58,1.87,2.36,3.16,2.36H384a3.47,3.47,0,0,1,2.85,1.38,5.44,5.44,0,0,1,1.1,3.53,4.4,4.4,0,0,1-1.67,3.54,6.53,6.53,0,0,1-4.3,1.38Z" transform="translate(-44.6 -138.49)"/><path class="cls-4" d="M414.12,770.5A22.75,22.75,0,0,1,401.56,767a24.09,24.09,0,0,1-8.57-9.63,33.62,33.62,0,0,1,0-28.29,24.23,24.23,0,0,1,8.57-9.63,24.26,24.26,0,0,1,25,0,24.2,24.2,0,0,1,8.56,9.63,33.87,33.87,0,0,1,0,28.29,23.76,23.76,0,0,1-8.52,9.63A22.78,22.78,0,0,1,414.12,770.5Zm0-8.84a14.16,14.16,0,0,0,8.08-2.36,15.83,15.83,0,0,0,5.5-6.48,22,22,0,0,0,2-9.53,22.22,22.22,0,0,0-2-9.58,15.82,15.82,0,0,0-5.5-6.54,15.07,15.07,0,0,0-16.16,0,16.21,16.21,0,0,0-5.54,6.54,21.8,21.8,0,0,0-2,9.58,21.54,21.54,0,0,0,2,9.53A16.22,16.22,0,0,0,406,759.3,14.18,14.18,0,0,0,414.12,761.66Z" transform="translate(-44.6 -138.49)"/><path class="cls-4" d="M469.91,770.5A20,20,0,0,1,458.27,767a23.57,23.57,0,0,1-7.95-9.63,32.67,32.67,0,0,1-2.9-14.09,30.93,30.93,0,0,1,3.12-14.2,24.2,24.2,0,0,1,8.56-9.63,24.26,24.26,0,0,1,25,0,24.23,24.23,0,0,1,8.57,9.63,30.93,30.93,0,0,1,3.12,14.2h-5.19A34.86,34.86,0,0,1,488,757.38a23.3,23.3,0,0,1-7.33,9.63A17.39,17.39,0,0,1,469.91,770.5Zm1.58,21.91a25.58,25.58,0,0,1-11.68-2.75,25.18,25.18,0,0,1-9.23-8.06,4.53,4.53,0,0,1-.83-3.44,4.39,4.39,0,0,1,1.71-2.85,3.85,3.85,0,0,1,3.29-.78,4.41,4.41,0,0,1,2.77,2,16.57,16.57,0,0,0,6,5.21,17.53,17.53,0,0,0,8.17,1.86,14.17,14.17,0,0,0,7.77-2.26,15.54,15.54,0,0,0,5.67-6.68,24.85,24.85,0,0,0,2.11-10.8v-14l2.9-8.65,5.71,2.07v21.22a31.83,31.83,0,0,1-3.08,14.09,25.17,25.17,0,0,1-8.56,10.07A22.05,22.05,0,0,1,471.49,792.41Zm.18-30.75a14.18,14.18,0,0,0,8.08-2.36,15.88,15.88,0,0,0,5.49-6.48,21.82,21.82,0,0,0,2-9.53,22.08,22.08,0,0,0-2-9.58,15.87,15.87,0,0,0-5.49-6.54,15.08,15.08,0,0,0-16.17,0,16.18,16.18,0,0,0-5.53,6.54,21.66,21.66,0,0,0-2,9.58,21.41,21.41,0,0,0,2,9.53,16.2,16.2,0,0,0,5.53,6.48A14.21,14.21,0,0,0,471.67,761.66Z" transform="translate(-44.6 -138.49)"/><path class="cls-4" d="M526.4,767.94a3.59,3.59,0,0,1-3.12.15,4.77,4.77,0,0,1-2.32-2.5l-20.13-42.74a4.47,4.47,0,0,1,2.11-6.09,3.77,3.77,0,0,1,3.17-.15,4.48,4.48,0,0,1,2.28,2.51l19.24,42.73a6.38,6.38,0,0,1,.66,3.59A3.07,3.07,0,0,1,526.4,767.94ZM516,793.68a5,5,0,0,1-2.11-.59q-3.87-2-2.11-6.19l26.79-67.68c1.18-2.75,3-3.54,5.54-2.36s3.37,3.31,2.2,6.19l-26.89,67.59Q518.41,793.69,516,793.68Z" transform="translate(-44.6 -138.49)"/><path class="cls-4" d="M582.45,770.11a4.22,4.22,0,0,1-3.25-1.48,5.23,5.23,0,0,1-1.31-3.63V698.49a5.21,5.21,0,0,1,1.31-3.69,4.3,4.3,0,0,1,3.25-1.42H600a21.3,21.3,0,0,1,11.68,3.24,21.94,21.94,0,0,1,7.95,9,29.37,29.37,0,0,1,2.86,13.21,27.8,27.8,0,0,1-2.86,12.78,21.5,21.5,0,0,1-7.95,8.74A21.75,21.75,0,0,1,600,743.48H587V765a5.34,5.34,0,0,1-1.27,3.63A4.17,4.17,0,0,1,582.45,770.11ZM587,734.05h13a12.91,12.91,0,0,0,7.11-2,13.57,13.57,0,0,0,4.83-5.41,16.91,16.91,0,0,0,1.76-7.86,18.56,18.56,0,0,0-1.76-8.3,14.14,14.14,0,0,0-4.83-5.65,12.5,12.5,0,0,0-7.11-2.06H587Z" transform="translate(-44.6 -138.49)"/><path class="cls-4" d="M634.38,770.11a4.21,4.21,0,0,1-3.25-1.23,5.21,5.21,0,0,1-1.15-3.69V721.28a5.22,5.22,0,0,1,1.15-3.63,4.1,4.1,0,0,1,3.25-1.28,4.18,4.18,0,0,1,3.29,1.23,5.38,5.38,0,0,1,1.1,3.68v43.91a5.42,5.42,0,0,1-1.1,3.64A4.11,4.11,0,0,1,634.38,770.11Zm-.09-33.6A21.35,21.35,0,0,1,636.88,726a20.11,20.11,0,0,1,7-7.42,17.83,17.83,0,0,1,9.66-2.75q5.26,0,7.86,1.91t2,4.57a4,4,0,0,1-1,2.12,3.37,3.37,0,0,1-1.71.93,4.64,4.64,0,0,1-2.11-.1,22.14,22.14,0,0,0-10.11-.2,13.37,13.37,0,0,0-7.07,4,10.9,10.9,0,0,0-2.59,7.47Z" transform="translate(-44.6 -138.49)"/><path class="cls-4" d="M689.2,770.5A22.75,22.75,0,0,1,676.64,767a24,24,0,0,1-8.57-9.63,33.62,33.62,0,0,1,0-28.29,24.15,24.15,0,0,1,8.57-9.63,24.26,24.26,0,0,1,25,0,24.2,24.2,0,0,1,8.56,9.63,33.87,33.87,0,0,1,0,28.29,23.86,23.86,0,0,1-8.53,9.63A22.75,22.75,0,0,1,689.2,770.5Zm0-8.84a14.18,14.18,0,0,0,8.08-2.36,15.81,15.81,0,0,0,5.49-6.48,21.82,21.82,0,0,0,2-9.53,22.08,22.08,0,0,0-2-9.58,15.8,15.8,0,0,0-5.49-6.54,15.07,15.07,0,0,0-16.16,0,16.13,16.13,0,0,0-5.54,6.54,21.66,21.66,0,0,0-2,9.58,21.41,21.41,0,0,0,2,9.53,16.15,16.15,0,0,0,5.54,6.48A14.16,14.16,0,0,0,689.2,761.66Z" transform="translate(-44.6 -138.49)"/><path class="cls-4" d="M745,770.5A19.92,19.92,0,0,1,733.35,767a23.57,23.57,0,0,1-8-9.63,32.52,32.52,0,0,1-2.9-14.09,30.93,30.93,0,0,1,3.12-14.2,24.13,24.13,0,0,1,8.56-9.63,24.26,24.26,0,0,1,25,0,24.23,24.23,0,0,1,8.57,9.63,30.93,30.93,0,0,1,3.12,14.2h-5.19A34.86,34.86,0,0,1,763,757.38a23.39,23.39,0,0,1-7.33,9.63A17.39,17.39,0,0,1,745,770.5Zm1.58,21.91a25.62,25.62,0,0,1-11.69-2.75,25.24,25.24,0,0,1-9.22-8.06,4.58,4.58,0,0,1-.84-3.44,4.44,4.44,0,0,1,1.72-2.85,3.85,3.85,0,0,1,3.29-.78,4.44,4.44,0,0,1,2.77,2,16.62,16.62,0,0,0,6,5.21,17.57,17.57,0,0,0,8.18,1.86,14.17,14.17,0,0,0,7.77-2.26,15.61,15.61,0,0,0,5.67-6.68,25,25,0,0,0,2.11-10.8v-14l2.89-8.65,5.72,2.07v21.22a31.83,31.83,0,0,1-3.08,14.09,25.2,25.2,0,0,1-8.57,10.07A22,22,0,0,1,746.57,792.41Zm.18-30.75a14.2,14.2,0,0,0,8.08-2.36,15.88,15.88,0,0,0,5.49-6.48,21.82,21.82,0,0,0,2-9.53,22.08,22.08,0,0,0-2-9.58,15.87,15.87,0,0,0-5.49-6.54,15.08,15.08,0,0,0-16.17,0,16.11,16.11,0,0,0-5.53,6.54,21.66,21.66,0,0,0-2,9.58,21.41,21.41,0,0,0,2,9.53,16.12,16.12,0,0,0,5.53,6.48A14.19,14.19,0,0,0,746.75,761.66Z" transform="translate(-44.6 -138.49)"/><path class="cls-4" d="M786.89,770.11a4.22,4.22,0,0,1-3.25-1.23,5.26,5.26,0,0,1-1.14-3.69V721.28a5.27,5.27,0,0,1,1.14-3.63,4.11,4.11,0,0,1,3.25-1.28,4.19,4.19,0,0,1,3.3,1.23,5.38,5.38,0,0,1,1.1,3.68v43.91a5.42,5.42,0,0,1-1.1,3.64A4.11,4.11,0,0,1,786.89,770.11Zm-.08-33.6A21.35,21.35,0,0,1,789.4,726a20.08,20.08,0,0,1,7-7.42,17.89,17.89,0,0,1,9.67-2.75q5.26,0,7.86,1.91t2,4.57a4.05,4.05,0,0,1-1,2.12,3.36,3.36,0,0,1-1.72.93,4.6,4.6,0,0,1-2.1-.1A22.14,22.14,0,0,0,801,725a13.34,13.34,0,0,0-7.07,4,10.9,10.9,0,0,0-2.59,7.47Z" transform="translate(-44.6 -138.49)"/><path class="cls-4" d="M842.51,770.5a23.84,23.84,0,0,1-21.83-13.12,30,30,0,0,1-3.21-14.09,31.7,31.7,0,0,1,3-14.2,23.82,23.82,0,0,1,8.39-9.63,22.07,22.07,0,0,1,12.3-3.48A20.29,20.29,0,0,1,853,719.36a21.5,21.5,0,0,1,7.52,9.34,34.13,34.13,0,0,1,2.59,13.7,4.38,4.38,0,0,1-1.14,3.1,3.79,3.79,0,0,1-2.9,1.22H823.62v-7.85h35.14l-3.6,2.75a23,23,0,0,0-1.76-8.8,14.6,14.6,0,0,0-4.74-6.14,12.31,12.31,0,0,0-7.47-2.26,14.72,14.72,0,0,0-8.57,2.46,15.38,15.38,0,0,0-5.4,6.73,24.18,24.18,0,0,0-1.84,9.68,20.57,20.57,0,0,0,2.19,9.62,17,17,0,0,0,6.07,6.68,16.14,16.14,0,0,0,8.87,2.46,15.22,15.22,0,0,0,5.58-1.13,16.72,16.72,0,0,0,4.61-2.6,4.65,4.65,0,0,1,2.86-1.13,3.59,3.59,0,0,1,2.68,1,4.85,4.85,0,0,1,1.58,3.24,3.62,3.62,0,0,1-1.41,3,23.67,23.67,0,0,1-7.42,4.32A24.17,24.17,0,0,1,842.51,770.5Z" transform="translate(-44.6 -138.49)"/><path class="cls-4" d="M890.21,770.5a30.19,30.19,0,0,1-11.37-2.11,21.47,21.47,0,0,1-8.13-5.36,4.56,4.56,0,0,1-1.1-3.58,4.88,4.88,0,0,1,1.71-3.29,4.3,4.3,0,0,1,3.47-1.33,4.6,4.6,0,0,1,3,1.72,13.9,13.9,0,0,0,4.79,3.49,16.37,16.37,0,0,0,7.33,1.62q5.1,0,7.78-1.87a5.89,5.89,0,0,0,2.77-4.81,6.23,6.23,0,0,0-2.51-5.11q-2.6-2.16-9.44-3.54-8.88-2-12.87-5.89a13.95,13.95,0,0,1-1.37-17.93A16,16,0,0,1,881,717.6,23.35,23.35,0,0,1,889.6,716,24.29,24.29,0,0,1,899.88,718a17.66,17.66,0,0,1,7.12,5.7,4.93,4.93,0,0,1,1.14,3.29,3.87,3.87,0,0,1-4.84,3.58,6.07,6.07,0,0,1-3.25-1.77,11.79,11.79,0,0,0-4.74-3.24,17.93,17.93,0,0,0-5.89-.88,13.42,13.42,0,0,0-6.54,1.47,4.68,4.68,0,0,0-2.68,4.32,6.28,6.28,0,0,0,.83,3.2,7.12,7.12,0,0,0,3.3,2.55,38.34,38.34,0,0,0,7.2,2.21,36.38,36.38,0,0,1,10.41,3.74,14.37,14.37,0,0,1,5.49,5.25,13.94,13.94,0,0,1,1.67,6.93,15.63,15.63,0,0,1-2.15,8.15,15.33,15.33,0,0,1-6.33,5.8A22.49,22.49,0,0,1,890.21,770.5Z" transform="translate(-44.6 -138.49)"/><path class="cls-4" d="M936.16,770.5a30.19,30.19,0,0,1-11.37-2.11,21.47,21.47,0,0,1-8.13-5.36,4.56,4.56,0,0,1-1.1-3.58,4.88,4.88,0,0,1,1.71-3.29,4.3,4.3,0,0,1,3.47-1.33,4.6,4.6,0,0,1,3,1.72,13.9,13.9,0,0,0,4.79,3.49,16.37,16.37,0,0,0,7.33,1.62q5.1,0,7.78-1.87a5.86,5.86,0,0,0,2.76-4.81,6.2,6.2,0,0,0-2.5-5.11q-2.6-2.16-9.44-3.54-8.88-2-12.87-5.89a13.95,13.95,0,0,1-1.37-17.93,15.88,15.88,0,0,1,6.77-4.91,23.35,23.35,0,0,1,8.61-1.62A24.29,24.29,0,0,1,945.83,718a17.63,17.63,0,0,1,7.11,5.7,4.89,4.89,0,0,1,1.15,3.29,3.87,3.87,0,0,1-4.84,3.58,6,6,0,0,1-3.25-1.77,11.79,11.79,0,0,0-4.74-3.24,17.93,17.93,0,0,0-5.89-.88,13.4,13.4,0,0,0-6.54,1.47,4.68,4.68,0,0,0-2.68,4.32,6.18,6.18,0,0,0,.83,3.2,7.12,7.12,0,0,0,3.3,2.55,38.34,38.34,0,0,0,7.2,2.21,36.5,36.5,0,0,1,10.41,3.74,14.37,14.37,0,0,1,5.49,5.25,13.94,13.94,0,0,1,1.67,6.93,15.73,15.73,0,0,1-2.15,8.15,15.33,15.33,0,0,1-6.33,5.8A22.49,22.49,0,0,1,936.16,770.5Z" transform="translate(-44.6 -138.49)"/><path class="cls-5" d="M117.76,814.4a1.94,1.94,0,0,1-1.52-.66,2.61,2.61,0,0,1,0-3.33,1.94,1.94,0,0,1,1.52-.66h23.63a2,2,0,0,1,1.53.66,2.64,2.64,0,0,1,0,3.33,2,2,0,0,1-1.53.66Zm11.84,33.13a2.13,2.13,0,0,1-1.64-.73,2.55,2.55,0,0,1-.66-1.79V809.75h4.6V845a2.52,2.52,0,0,1-.67,1.79A2.09,2.09,0,0,1,129.6,847.53Z" transform="translate(-44.6 -138.49)"/><path class="cls-5" d="M177.61,847.72A12.32,12.32,0,0,1,171.1,846a11.92,11.92,0,0,1-4.46-4.74,14.43,14.43,0,0,1-1.62-6.94,15.3,15.3,0,0,1,1.53-7,11.77,11.77,0,0,1,4.22-4.74,11.25,11.25,0,0,1,6.18-1.71,10.27,10.27,0,0,1,5.92,1.67,10.58,10.58,0,0,1,3.78,4.59,16.59,16.59,0,0,1,1.3,6.75,2.12,2.12,0,0,1-.57,1.52,1.92,1.92,0,0,1-1.46.61h-17.8v-3.87h17.67L184,833.5a11.22,11.22,0,0,0-.88-4.33,7.2,7.2,0,0,0-2.38-3A6.31,6.31,0,0,0,177,825a7.5,7.5,0,0,0-4.31,1.21,7.58,7.58,0,0,0-2.71,3.31,11.65,11.65,0,0,0-.93,4.76,10,10,0,0,0,1.1,4.74,8.49,8.49,0,0,0,3.05,3.29,8.26,8.26,0,0,0,4.46,1.21,7.75,7.75,0,0,0,2.81-.55,8.26,8.26,0,0,0,2.32-1.29,2.35,2.35,0,0,1,1.43-.55,1.79,1.79,0,0,1,1.35.51,2.35,2.35,0,0,1,.8,1.59,1.8,1.8,0,0,1-.71,1.5,12,12,0,0,1-3.73,2.13A12.3,12.3,0,0,1,177.61,847.72Z" transform="translate(-44.6 -138.49)"/><path class="cls-5" d="M228.5,847.72a11.46,11.46,0,0,1-6.29-1.76,12.3,12.3,0,0,1-4.33-4.79,14.62,14.62,0,0,1-1.57-6.85,15.17,15.17,0,0,1,1.54-7,12,12,0,0,1,4.25-4.77,11.25,11.25,0,0,1,6.18-1.71,10.39,10.39,0,0,1,4.77,1.09,11.64,11.64,0,0,1,3.89,3.26,1.86,1.86,0,0,1,.44,1.6,2.53,2.53,0,0,1-1,1.45,1.56,1.56,0,0,1-1.37.31,2.61,2.61,0,0,1-1.37-.84,6.82,6.82,0,0,0-5.39-2.52,7.06,7.06,0,0,0-4,1.14,7.64,7.64,0,0,0-2.69,3.17,10.93,10.93,0,0,0-1,4.78,10.49,10.49,0,0,0,1,4.65,8,8,0,0,0,2.76,3.21,7.22,7.22,0,0,0,4.11,1.19,8.32,8.32,0,0,0,2.72-.41,6.45,6.45,0,0,0,2.14-1.28,2.6,2.6,0,0,1,1.46-.71,1.67,1.67,0,0,1,1.32.46A2.39,2.39,0,0,1,237,843a1.89,1.89,0,0,1-.53,1.52A10.68,10.68,0,0,1,228.5,847.72Z" transform="translate(-44.6 -138.49)"/><path class="cls-5" d="M271.08,837.9a2.08,2.08,0,0,1-1.61-.7,2.49,2.49,0,0,1-.64-1.76V812.22a2.49,2.49,0,0,1,.64-1.79,2.28,2.28,0,0,1,3.25,0,2.56,2.56,0,0,1,.61,1.79v23.22a2.57,2.57,0,0,1-.61,1.76A2.08,2.08,0,0,1,271.08,837.9Zm0,9.68a2.11,2.11,0,0,1-1.61-.7,2.52,2.52,0,0,1-.64-1.77V823.54a2.49,2.49,0,0,1,.64-1.79,2.28,2.28,0,0,1,3.25,0,2.56,2.56,0,0,1,.61,1.79v21.57a2.59,2.59,0,0,1-.61,1.77A2.12,2.12,0,0,1,271.08,847.58Zm18.16,0a2.13,2.13,0,0,1-1.62-.7,2.56,2.56,0,0,1-.64-1.77v-11.9a9.65,9.65,0,0,0-.92-4.5,6.05,6.05,0,0,0-2.5-2.58,7.42,7.42,0,0,0-3.6-.85,6.85,6.85,0,0,0-3.36.82,6.47,6.47,0,0,0-2.38,2.2,5.75,5.75,0,0,0-.89,3.17h-2.78A10.87,10.87,0,0,1,271.9,826a10.2,10.2,0,0,1,3.69-3.8,10.06,10.06,0,0,1,5.25-1.4,10.52,10.52,0,0,1,5.46,1.43,9.92,9.92,0,0,1,3.8,4.18,14.91,14.91,0,0,1,1.39,6.77v11.9a2.52,2.52,0,0,1-.64,1.77A2.13,2.13,0,0,1,289.24,847.58Z" transform="translate(-44.6 -138.49)"/><path class="cls-5" d="M326,847.58a2.1,2.1,0,0,1-1.61-.7,2.53,2.53,0,0,1-.65-1.77V823.54a2.49,2.49,0,0,1,.65-1.79,2.27,2.27,0,0,1,3.24,0,2.56,2.56,0,0,1,.62,1.79v21.57a2.6,2.6,0,0,1-.62,1.77A2.09,2.09,0,0,1,326,847.58Zm18.15,0a2.11,2.11,0,0,1-1.61-.7,2.52,2.52,0,0,1-.64-1.77v-11.9a9.52,9.52,0,0,0-.93-4.5,6.09,6.09,0,0,0-2.49-2.58,7.42,7.42,0,0,0-3.6-.85,6.85,6.85,0,0,0-3.36.82,6.5,6.5,0,0,0-2.39,2.2,5.75,5.75,0,0,0-.88,3.17h-2.78A11,11,0,0,1,326.8,826a10.07,10.07,0,0,1,8.95-5.2,10.48,10.48,0,0,1,5.45,1.43,9.79,9.79,0,0,1,3.8,4.18,14.91,14.91,0,0,1,1.39,6.77v11.9a2.52,2.52,0,0,1-.64,1.77A2.1,2.1,0,0,1,344.14,847.58Z" transform="translate(-44.6 -138.49)"/><path class="cls-5" d="M389.55,847.72a11.63,11.63,0,0,1-6.32-1.72,11.9,11.9,0,0,1-4.3-4.74,14.76,14.76,0,0,1-1.57-6.94,14.94,14.94,0,0,1,1.57-7,12,12,0,0,1,4.3-4.74,11.71,11.71,0,0,1,6.32-1.71,11.56,11.56,0,0,1,6.27,1.71,12.05,12.05,0,0,1,4.31,4.74,16.33,16.33,0,0,1,0,13.93,11.78,11.78,0,0,1-4.28,4.74A11.61,11.61,0,0,1,389.55,847.72Zm0-4.35a7.23,7.23,0,0,0,4.06-1.16,8,8,0,0,0,2.77-3.19,11.68,11.68,0,0,0,0-9.41,7.94,7.94,0,0,0-2.77-3.22,7.69,7.69,0,0,0-8.12,0,8.06,8.06,0,0,0-2.79,3.22,11.46,11.46,0,0,0,0,9.41,8.1,8.1,0,0,0,2.79,3.19A7.23,7.23,0,0,0,389.55,843.37Z" transform="translate(-44.6 -138.49)"/><path class="cls-5" d="M443.22,847.72a10.15,10.15,0,0,1-5.85-1.72,11.6,11.6,0,0,1-4-4.74,15.77,15.77,0,0,1-1.46-6.94,14.94,14.94,0,0,1,1.57-7,12,12,0,0,1,4.3-4.74,11.71,11.71,0,0,1,6.32-1.71,11.56,11.56,0,0,1,6.27,1.71,12.05,12.05,0,0,1,4.31,4.74,15.06,15.06,0,0,1,1.57,7h-2.61a16.82,16.82,0,0,1-1.35,6.94,11.42,11.42,0,0,1-3.68,4.74A8.87,8.87,0,0,1,443.22,847.72Zm.79,10.79a13,13,0,0,1-5.87-1.36,12.56,12.56,0,0,1-4.64-4,2.24,2.24,0,0,1-.42-1.7,2.17,2.17,0,0,1,.86-1.4,2,2,0,0,1,1.66-.38,2.22,2.22,0,0,1,1.39,1,8.36,8.36,0,0,0,3,2.57,9,9,0,0,0,4.11.91A7.28,7.28,0,0,0,448,853a7.77,7.77,0,0,0,2.85-3.29,12,12,0,0,0,1.06-5.32v-6.87l1.46-4.25,2.87,1v10.45a15.42,15.42,0,0,1-1.55,6.94,12.51,12.51,0,0,1-4.3,5A11.32,11.32,0,0,1,444,858.51Zm.09-15.14a7.29,7.29,0,0,0,4.07-1.16,8,8,0,0,0,2.76-3.19,11.68,11.68,0,0,0,0-9.41,8,8,0,0,0-2.76-3.22,7.7,7.7,0,0,0-8.13,0,8.06,8.06,0,0,0-2.79,3.22,11.46,11.46,0,0,0,0,9.41,8.1,8.1,0,0,0,2.79,3.19A7.23,7.23,0,0,0,444.1,843.37Z" transform="translate(-44.6 -138.49)"/><path class="cls-5" d="M489.91,847.53a2.13,2.13,0,0,1-1.64-.61,2.54,2.54,0,0,1-.57-1.81V823.49a2.58,2.58,0,0,1,.57-1.79,2.49,2.49,0,0,1,3.29,0,2.58,2.58,0,0,1,.56,1.81v21.62a2.63,2.63,0,0,1-.56,1.79A2.08,2.08,0,0,1,489.91,847.53ZM489.86,831a10.33,10.33,0,0,1,1.31-5.2,9.84,9.84,0,0,1,3.51-3.65,9,9,0,0,1,4.86-1.36,6.83,6.83,0,0,1,3.95.94,2.05,2.05,0,0,1,1,2.25,1.85,1.85,0,0,1-.5,1,1.72,1.72,0,0,1-.87.46,2.28,2.28,0,0,1-1.06-.05,11.38,11.38,0,0,0-5.08-.09,6.64,6.64,0,0,0-3.55,2,5.29,5.29,0,0,0-1.3,3.68Z" transform="translate(-44.6 -138.49)"/><path class="cls-5" d="M543.49,847.72A12.33,12.33,0,0,1,537,846a11.92,11.92,0,0,1-4.46-4.74,14.42,14.42,0,0,1-1.61-6.94,15.43,15.43,0,0,1,1.52-7,11.84,11.84,0,0,1,4.22-4.74,11.3,11.3,0,0,1,6.18-1.71,10.27,10.27,0,0,1,5.92,1.67,10.58,10.58,0,0,1,3.78,4.59,16.42,16.42,0,0,1,1.3,6.75,2.12,2.12,0,0,1-.57,1.52,1.9,1.9,0,0,1-1.46.61H534v-3.87h17.67l-1.81,1.35a11.22,11.22,0,0,0-.89-4.33,7.2,7.2,0,0,0-2.38-3,6.27,6.27,0,0,0-3.76-1.11,7.47,7.47,0,0,0-4.3,1.21,7.6,7.6,0,0,0-2.72,3.31,11.65,11.65,0,0,0-.93,4.76,9.87,9.87,0,0,0,1.11,4.74,8.34,8.34,0,0,0,3,3.29,8.21,8.21,0,0,0,4.46,1.21,7.74,7.74,0,0,0,2.8-.55,8.26,8.26,0,0,0,2.32-1.29,2.35,2.35,0,0,1,1.44-.55,1.78,1.78,0,0,1,1.34.51,2.35,2.35,0,0,1,.8,1.59,1.78,1.78,0,0,1-.71,1.5,11.88,11.88,0,0,1-3.73,2.13A12.29,12.29,0,0,1,543.49,847.72Z" transform="translate(-44.6 -138.49)"/><path class="cls-5" d="M593.09,847.72a15.27,15.27,0,0,1-5.72-1,10.79,10.79,0,0,1-4.08-2.63,2.24,2.24,0,0,1-.56-1.77,2.41,2.41,0,0,1,.86-1.62,2.18,2.18,0,0,1,1.75-.65,2.34,2.34,0,0,1,1.48.84,6.83,6.83,0,0,0,2.41,1.72,8.39,8.39,0,0,0,3.69.8,6.91,6.91,0,0,0,3.9-.92,2.88,2.88,0,0,0,1.4-2.37,3,3,0,0,0-1.26-2.52,11.68,11.68,0,0,0-4.75-1.74c-3-.64-5.13-1.61-6.47-2.9a6.77,6.77,0,0,1-.69-8.83,8,8,0,0,1,3.4-2.41,11.83,11.83,0,0,1,4.33-.8,12.55,12.55,0,0,1,5.17,1,9,9,0,0,1,3.58,2.81,2.34,2.34,0,0,1,.57,1.62,1.94,1.94,0,0,1-.75,1.43,2,2,0,0,1-1.68.33,3,3,0,0,1-1.63-.87,6,6,0,0,0-2.39-1.59,9.17,9.17,0,0,0-3-.44,6.81,6.81,0,0,0-3.29.73,2.28,2.28,0,0,0-1.34,2.13,3,3,0,0,0,.42,1.57,3.54,3.54,0,0,0,1.65,1.26,19.75,19.75,0,0,0,3.62,1.08,18.79,18.79,0,0,1,5.24,1.84,7.24,7.24,0,0,1,2.76,2.59,6.76,6.76,0,0,1,.84,3.41,7.6,7.6,0,0,1-1.08,4,7.71,7.71,0,0,1-3.18,2.86A11.53,11.53,0,0,1,593.09,847.72Z" transform="translate(-44.6 -138.49)"/><path class="cls-5" d="M641.81,847.72a15.27,15.27,0,0,1-5.72-1,10.79,10.79,0,0,1-4.08-2.63,2.24,2.24,0,0,1-.56-1.77,2.38,2.38,0,0,1,.87-1.62,2.15,2.15,0,0,1,1.74-.65,2.34,2.34,0,0,1,1.48.84,6.83,6.83,0,0,0,2.41,1.72,8.39,8.39,0,0,0,3.69.8,6.91,6.91,0,0,0,3.9-.92,2.88,2.88,0,0,0,1.4-2.37,3,3,0,0,0-1.26-2.52,11.62,11.62,0,0,0-4.75-1.74c-3-.64-5.13-1.61-6.47-2.9a6.77,6.77,0,0,1-.69-8.83,8,8,0,0,1,3.4-2.41,11.83,11.83,0,0,1,4.33-.8,12.55,12.55,0,0,1,5.17,1,9,9,0,0,1,3.58,2.81,2.34,2.34,0,0,1,.57,1.62,1.94,1.94,0,0,1-.75,1.43,2,2,0,0,1-1.68.33,3,3,0,0,1-1.63-.87,6,6,0,0,0-2.39-1.59,9.15,9.15,0,0,0-3-.44,6.82,6.82,0,0,0-3.3.73,2.3,2.3,0,0,0-1.34,2.13,3,3,0,0,0,.42,1.57,3.54,3.54,0,0,0,1.65,1.26,19.75,19.75,0,0,0,3.62,1.08,18.79,18.79,0,0,1,5.24,1.84,7.24,7.24,0,0,1,2.76,2.59,6.76,6.76,0,0,1,.84,3.41,7.43,7.43,0,0,1-4.26,6.87A11.53,11.53,0,0,1,641.81,847.72Z" transform="translate(-44.6 -138.49)"/><path class="cls-5" d="M683,848.3a2.83,2.83,0,0,1-2.15-1A3.37,3.37,0,0,1,680,845a3.43,3.43,0,0,1,.9-2.39,2.83,2.83,0,0,1,2.15-1,2.79,2.79,0,0,1,2.16,1,3.46,3.46,0,0,1,.88,2.39,3.4,3.4,0,0,1-.88,2.35A2.79,2.79,0,0,1,683,848.3Z" transform="translate(-44.6 -138.49)"/><path class="cls-5" d="M728,847.72a11.49,11.49,0,0,1-6.3-1.76,12.38,12.38,0,0,1-4.33-4.79,14.74,14.74,0,0,1-1.56-6.85,15.17,15.17,0,0,1,1.54-7,12,12,0,0,1,4.24-4.77,11.31,11.31,0,0,1,6.19-1.71A10.45,10.45,0,0,1,732.5,822a11.51,11.51,0,0,1,3.88,3.26,1.87,1.87,0,0,1,.45,1.6,2.55,2.55,0,0,1-1,1.45,1.53,1.53,0,0,1-1.36.31,2.58,2.58,0,0,1-1.37-.84,6.83,6.83,0,0,0-5.39-2.52,7,7,0,0,0-4,1.14,7.5,7.5,0,0,0-2.69,3.17,10.93,10.93,0,0,0-1,4.78,10.49,10.49,0,0,0,1,4.65,8,8,0,0,0,2.76,3.21,7.22,7.22,0,0,0,4.11,1.19,8.26,8.26,0,0,0,2.71-.41,6.5,6.5,0,0,0,2.15-1.28,2.57,2.57,0,0,1,1.45-.71,1.7,1.7,0,0,1,1.33.46,2.39,2.39,0,0,1,.84,1.53,1.89,1.89,0,0,1-.53,1.52A10.68,10.68,0,0,1,728,847.72Z" transform="translate(-44.6 -138.49)"/><path class="cls-5" d="M779.23,847.72a11.63,11.63,0,0,1-6.32-1.72,11.9,11.9,0,0,1-4.3-4.74,14.76,14.76,0,0,1-1.57-6.94,14.94,14.94,0,0,1,1.57-7,12,12,0,0,1,4.3-4.74,11.71,11.71,0,0,1,6.32-1.71,11.56,11.56,0,0,1,6.27,1.71,12.05,12.05,0,0,1,4.31,4.74,16.33,16.33,0,0,1,0,13.93,11.78,11.78,0,0,1-4.28,4.74A11.61,11.61,0,0,1,779.23,847.72Zm0-4.35a7.23,7.23,0,0,0,4.06-1.16,8,8,0,0,0,2.77-3.19,11.68,11.68,0,0,0,0-9.41,7.94,7.94,0,0,0-2.77-3.22,7.69,7.69,0,0,0-8.12,0,8.06,8.06,0,0,0-2.79,3.22,11.46,11.46,0,0,0,0,9.41,8.1,8.1,0,0,0,2.79,3.19A7.23,7.23,0,0,0,779.23,843.37Z" transform="translate(-44.6 -138.49)"/><path class="cls-5" d="M825.08,847.58a2.11,2.11,0,0,1-1.61-.7,2.52,2.52,0,0,1-.64-1.77V823.59a2.47,2.47,0,0,1,.64-1.79,2.13,2.13,0,0,1,1.61-.68,2.1,2.1,0,0,1,1.63.68,2.5,2.5,0,0,1,.62,1.79v21.52a2.55,2.55,0,0,1-.62,1.77A2.08,2.08,0,0,1,825.08,847.58Zm14.75,0a2.13,2.13,0,0,1-1.61-.7,2.52,2.52,0,0,1-.64-1.77V831.28a6.51,6.51,0,0,0-1.37-4.53,4.65,4.65,0,0,0-3.58-1.47,4.82,4.82,0,0,0-3.8,1.74,6.58,6.58,0,0,0-1.5,4.45h-2.78a12.64,12.64,0,0,1,1.15-5.54,9.14,9.14,0,0,1,3.18-3.75A8.73,8.73,0,0,1,838,822a8,8,0,0,1,3,3.55,13.4,13.4,0,0,1,1.09,5.69v13.83a2.6,2.6,0,0,1-.62,1.77A2.1,2.1,0,0,1,839.83,847.58Zm14.71,0a2.13,2.13,0,0,1-1.61-.7,2.52,2.52,0,0,1-.64-1.77V831.28a6.51,6.51,0,0,0-1.37-4.53,4.65,4.65,0,0,0-3.58-1.47,4.72,4.72,0,0,0-3.77,1.74,6.62,6.62,0,0,0-1.48,4.45h-3.67a11.87,11.87,0,0,1,1.24-5.54,9.35,9.35,0,0,1,3.46-3.75,9.68,9.68,0,0,1,5.11-1.35,8.24,8.24,0,0,1,4.46,1.21,8,8,0,0,1,3,3.55,13.4,13.4,0,0,1,1.09,5.69v13.83a2.6,2.6,0,0,1-.62,1.77A2.12,2.12,0,0,1,854.54,847.58Z" transform="translate(-44.6 -138.49)"/></svg>