<?xml version="1.0" encoding="utf-8"?>
<!-- Generator: Adobe Illustrator 25.0.0, SVG Export Plug-In . SVG Version: 6.00 Build 0)  -->
<svg version="1.1" id="Layer_1" xmlns="http://www.w3.org/2000/svg" xmlns:xlink="http://www.w3.org/1999/xlink" x="0px" y="0px"
	 viewBox="0 0 186.95 225.54" style="enable-background:new 0 0 186.95 225.54;" xml:space="preserve">
<style type="text/css">
	.st0{fill:#FFBC13;}
</style>
<g>
	<path class="st0" d="M52.67,176.09L52.67,176.09c-0.32-1.67-0.64-3.34-1.04-5c-0.08-0.89-0.86-1.55-1.75-1.47
		c-0.04,0-0.08,0.01-0.12,0.02c-0.78-0.01-1.57,0.01-2.35,0.08c-2.66,0.23-5.32,0.62-7.99,0.68c-3.5,0.21-7.02,0.07-10.49-0.43
		c-3.88-0.58-7.36-2.7-9.64-5.9c-1.92-2.83-3.38-5.94-4.33-9.22c-0.95-3.08-1.75-6.2-2.39-9.36c-0.08-1.16-1.09-2.04-2.26-1.96
		c-0.01,0-0.03,0-0.04,0h-0.01c-2.17,0.04-4.34-0.16-6.51-0.23c-3.29-0.1-3.13,1.42-3.48,4.48c-0.34,2.94-0.34,5.9-0.01,8.84
		c1.16,10.45,6.48,21.39,16.38,26.04c4.91,2.15,10.21,3.31,15.57,3.41c5.44,0.2,10.89,0,16.31-0.59c1.2-0.04,2.39-0.18,3.56-0.41
		c1.64-0.43,2.03-1.08,1.73-2.74C53.41,180.26,53.06,178.17,52.67,176.09z"/>
	<path class="st0" d="M159.02,189.29c-0.97-2.01-2.55-3.65-4.52-4.69c-2.53-1.3-5.45-1.63-8.2-0.94c-2.6,0.52-4.98,1.85-6.77,3.8
		c-3.1,3.19-4.18,7.85-2.78,12.07c0.81,2.83,2.82,5.17,5.5,6.4c3.03,1.54,6.52,1.91,9.81,1.04c5.05-1.26,8.8-5.55,8.62-10.15
		C160.73,194.22,160.17,191.63,159.02,189.29L159.02,189.29z"/>
	<path class="st0" d="M186.91,125.52L186.91,125.52c-0.03-0.28-0.05-0.58-0.09-0.87c-1.19-9.35-10.08-14.75-18.15-17.81
		c-2.28-0.87-4.6-1.64-6.94-2.32c-4.67-1.59-9.42-2.93-14.23-4c-5.15-1.19-10.35-2.18-15.65-2.96c0.01-0.38,0.25-0.72,0.6-0.85
		c1.42-0.86,2.84-1.72,4.28-2.56c5.54-3.23,10.97-6.62,16.25-10.25c3.63-2.47,7.02-5.26,10.15-8.34
		c8.01-7.96,14.56-19.71,8.08-29.14c-0.92-1.32-2-2.51-3.23-3.55c-28.01-27.56-88.55-12.32-88.55-12.32
		c-0.63,0.09-1.22,0.35-1.7,0.76l0.24,1.42c0.38,2.18,0.79,4.35,1.17,6.53c0.55,3.18,1.08,6.35,1.63,9.53
		c0.13,0.74,0.26,1.48,0.39,2.22c0.53,0.19,1.11,0.2,1.64,0.03c1.48-0.33,2.96-0.69,4.44-1.04c4.08-0.95,8.22-1.64,12.34-2.4
		c1.81-0.33,3.63-0.63,5.46-0.83c2.24-0.24,4.48-0.55,6.74-0.73c5-0.56,10.03-0.74,15.05-0.55c2.99,0.22,5.98,0.41,8.95,0.91
		c3.43,0.51,6.72,1.72,9.66,3.56c3.25,1.87,4.72,5.78,3.5,9.32c-0.95,2.76-2.48,5.28-4.49,7.38c-3.04,3.29-6.45,6.22-10.17,8.73
		c-3.12,2.12-6.35,4.08-9.68,5.86c-3.3,1.83-6.71,3.47-10.18,4.98c-4.75,2.06-9.53,3.99-14.41,5.7c-3.09,1.08-6.21,2.07-9.31,3.14
		c-1.21,0.41-1.55,0.71-1.57,1.66c0.07,0.44,0.14,0.87,0.21,1.31c0.41,2.45,0.81,4.91,1.25,7.35c0.61,3.39,1.21,6.78,1.75,10.18
		c0.51,0.19,1.05,0.23,1.58,0.12c3.88-0.55,7.77-1.03,11.67-1.45c4.22-0.45,8.46-0.68,12.69-0.87c5.26-0.19,10.53-0.06,15.77,0.39
		c4.78,0.31,9.52,1.09,14.15,2.32c3.88,0.87,7.54,2.56,10.72,4.96c2.93,1.89,4,5.66,2.48,8.81c-1.16,2.31-2.77,4.38-4.72,6.07
		c-2.18,1.99-4.56,3.75-7.11,5.25c-4.27,2.57-8.72,4.83-13.31,6.77c-5,2.17-10.1,4.06-15.26,5.82c-4.63,1.57-9.29,3.03-14,4.36
		c-1.73,0.49-3.47,0.96-5.19,1.46c-0.92,0.27-1.41,0.58-1.64,1.16c0.31,1.75,0.61,3.5,0.91,5.25c0.7,4.04,1.39,8.08,2.08,12.12
		c0.02,0.09,0.03,0.17,0.05,0.26c0.41,0.06,0.82,0.05,1.22-0.03c1.59-0.31,3.21-0.22,4.82-0.44c15.35-2.39,30.15-7.52,43.69-15.16
		c1.44-0.78,2.86-1.58,4.27-2.4c2.45-1.43,4.85-2.95,7.2-4.57c2.52-1.7,4.95-3.53,7.29-5.48c1.68-1.44,3.29-2.95,4.87-4.51
		c1.1-1.1,2.14-2.26,3.1-3.47c0.02-0.02,0.04-0.05,0.06-0.07c0.91-1.1,1.78-2.22,2.61-3.39
		C185.16,134.83,187.26,130.51,186.91,125.52z"/>
	<path class="st0" d="M82.45,217.46l-0.01,0.01c-0.65-3.81-1.28-7.63-1.93-11.44c-0.67-3.95-1.34-7.9-2.03-11.85
		c-0.52-3.04-1.05-6.08-1.59-9.12c-0.4-2.31-0.82-4.63-1.22-6.94c-0.7-4.04-1.38-8.08-2.08-12.12c-0.67-3.86-1.35-7.71-2.01-11.57
		c-0.52-3-1-6-1.52-8.99c-0.52-3-1.06-5.99-1.58-8.98c-0.69-4-1.37-7.99-2.07-11.99c-0.5-2.86-1.06-5.7-1.51-8.57
		c-0.55-3.5-1.17-7-1.79-10.49c-0.44-2.45-0.84-4.9-1.25-7.35c-0.33-2-0.57-4.02-1.01-5.99c-0.61-2.7-0.9-5.45-1.44-8.16
		c-0.6-3.03-1.07-6.08-1.6-9.12c-0.51-2.95-1.02-5.9-1.53-8.85c-0.44-2.54-0.85-5.08-1.29-7.62c-0.55-3.18-1.13-6.35-1.68-9.53
		c-0.55-3.18-1.08-6.35-1.63-9.53c-0.38-2.18-0.8-4.35-1.17-6.53c-0.57-3.31-1.1-6.63-1.69-9.94c-0.53-2.95-1.1-5.89-1.54-8.84
		c-0.66-4.28-1.59-8.51-2.15-12.81c-0.13-0.98-0.33-1.11-1.39-1.12c-1.34-0.01-2.68,0-4.02,0c-2.73,0-5.45-0.02-8.18,0
		c-1.21,0.01-1.24,0.06-1.15,1.29c0.08,1.15,0.21,2.29,0.37,3.43c0.52,3.74,1.06,7.48,1.61,11.22c0.66,4.46,1.34,8.92,2.03,13.38
		c0.5,3.23,1.05,6.45,1.57,9.68c0.67,4.19,1.31,8.37,1.98,12.56c0.44,2.72,0.9,5.45,1.35,8.17c0.53,3.18,1.05,6.36,1.58,9.54
		c0.56,3.36,1.14,6.72,1.71,10.07c0.43,2.59,0.85,5.18,1.28,7.77c0.39,2.32,0.81,4.63,1.19,6.95c0.52,3.23,1,6.46,1.52,9.68
		c0.42,2.59,0.9,5.17,1.32,7.76c0.56,3.46,1.1,6.92,1.63,10.38c0.56,3.55,1.11,7.1,1.69,10.65c0.44,2.73,0.91,5.45,1.36,8.18
		c0.44,2.68,0.84,5.37,1.28,8.05c0.65,4,1.34,8,1.98,12c0.63,3.91,1.19,7.83,1.83,11.74c0.4,2.5,0.9,4.99,1.31,7.49
		c0.68,4.13,1.31,8.28,1.99,12.41c0.8,4.86,1.62,9.72,2.46,14.57c1,5.81,2.03,11.62,3.05,17.43c0.18,1.08,0.18,1.11,1.32,1.12
		c2.45,0.02,4.9,0,7.35,0c2.45,0,4.9,0.01,7.35,0c1.21,0,1.35-0.2,1.13-1.41C83.25,221.9,82.83,219.68,82.45,217.46z"/>
	<path class="st0" d="M104.01,217.46l-0.01,0.01c-0.65-3.81-1.28-7.63-1.93-11.44c-0.67-3.95-1.34-7.9-2.03-11.85
		c-0.52-3.04-1.05-6.08-1.58-9.12c-0.41-2.31-0.82-4.63-1.22-6.94c-0.7-4.04-1.38-8.08-2.08-12.12c-0.67-3.86-1.35-7.71-2.01-11.57
		c-0.52-2.99-1-6-1.52-8.99c-0.52-3-1.06-5.99-1.58-8.98c-0.69-4-1.37-7.99-2.07-11.99c-0.5-2.86-1.06-5.7-1.51-8.57
		c-0.55-3.5-1.17-7-1.79-10.49c-0.44-2.45-0.84-4.9-1.25-7.35c-0.34-2-0.57-4.02-1.01-5.99c-0.61-2.7-0.9-5.45-1.44-8.16
		c-0.6-3.03-1.08-6.08-1.6-9.12c-0.51-2.95-1.02-5.9-1.53-8.85c-0.43-2.54-0.85-5.08-1.29-7.62c-0.55-3.18-1.13-6.35-1.68-9.52
		c-0.55-3.17-1.08-6.36-1.63-9.53c-0.38-2.18-0.8-4.35-1.17-6.52c-0.57-3.31-1.1-6.63-1.69-9.94c-0.53-2.94-1.1-5.89-1.54-8.84
		c-0.66-4.28-1.59-8.51-2.15-12.81c-0.13-0.98-0.33-1.11-1.39-1.12c-1.34-0.01-2.68,0-4.02,0h-1.04c-2.37,0-4.76-0.01-7.14,0
		c-1.21,0.01-1.24,0.06-1.15,1.29c0.08,1.15,0.21,2.29,0.37,3.43c0.52,3.74,1.06,7.48,1.61,11.22c0.66,4.46,1.34,8.92,2.03,13.38
		c0.5,3.23,1.06,6.46,1.57,9.68c0.67,4.18,1.31,8.37,1.98,12.56c0.44,2.73,0.9,5.45,1.35,8.17c0.53,3.18,1.04,6.36,1.58,9.54
		c0.56,3.36,1.14,6.71,1.71,10.07c0.43,2.59,0.84,5.18,1.28,7.77c0.39,2.32,0.81,4.63,1.19,6.95c0.52,3.23,1,6.46,1.52,9.68
		c0.42,2.59,0.9,5.17,1.32,7.76c0.56,3.46,1.1,6.92,1.63,10.38c0.56,3.55,1.12,7.1,1.69,10.65c0.44,2.73,0.91,5.45,1.36,8.18
		c0.43,2.68,0.84,5.37,1.28,8.05c0.65,4,1.34,8,1.98,12c0.63,3.91,1.19,7.83,1.83,11.74c0.41,2.5,0.91,4.99,1.32,7.49
		c0.68,4.14,1.31,8.28,1.99,12.41c0.8,4.86,1.62,9.72,2.46,14.58c1,5.81,2.03,11.62,3.05,17.43c0.18,1.08,0.18,1.11,1.32,1.12
		c2.45,0.02,4.9,0,7.35,0h2.04c1.35,0,2.69,0,4.04,0c0.42,0,0.84,0,1.26,0c1.21,0,1.35-0.2,1.13-1.41
		C104.82,221.9,104.4,219.68,104.01,217.46z"/>
</g>
</svg>
